<svg width="1440" height="603" viewBox="0 0 1440 603" fill="none" xmlns="http://www.w3.org/2000/svg">
<path d="M735.382 276.701C680.922 287.394 624.991 296.137 574.947 314.17C483.542 347.123 421.62 407.39 367.411 467.02C345.332 491.26 323.416 521.219 341.918 546.792C355.724 565.89 387.693 575.329 417.764 581.605C566.748 612.659 727.302 603.249 881.202 586.33C1001.15 573.151 1121.12 555.356 1231.51 521.11C1283.76 504.907 1334.43 484.626 1372.81 455.681C1398.61 436.195 1418.18 413.278 1434.63 389.595C1505.08 287.861 1517.81 166.79 1457.49 62.1416C1444.52 39.8412 1391.21 -31.9338 1347.61 -1.66617C1305.37 27.6466 1272.81 62.7185 1228.27 91.3649C1140.56 147.742 1037.91 193.02 928.45 227.684C866.068 247.375 801.518 263.763 735.382 276.701Z" stroke="white" stroke-opacity="0.08" stroke-linecap="round" stroke-linejoin="round"/>
<path d="M938.517 231.652C878.218 250.775 815.79 266.669 751.808 279.187C699.159 289.572 645.038 298.086 596.686 315.532C508.373 347.481 448.497 405.808 396.127 463.509C374.829 486.963 353.663 515.948 371.591 540.675C385.044 559.176 416.042 568.317 445.185 574.374C589.71 604.423 745.538 595.093 894.67 578.592C1010.95 565.711 1127.23 548.344 1234.2 515.042C1284.82 499.287 1333.9 479.593 1371.09 451.513C1396.11 432.615 1415.06 410.384 1430.97 387.427C1499.36 288.706 1511.92 171.236 1453.5 69.6314C1445.17 54.96 1418.99 19.2118 1389.93 5.97279C1375.58 -0.60195 1360.49 -1.68613 1346.45 8.04169C1305.24 36.5587 1273.43 70.7056 1230.05 98.5562C1209.54 111.752 1188.21 124.351 1166.09 136.353C1096.58 173.912 1019.29 205.95 938.517 231.652Z" stroke="white" stroke-opacity="0.08" stroke-width="1.03" stroke-linecap="round" stroke-linejoin="round"/>
<path d="M948.6 235.612C890.378 254.17 830.067 269.573 768.235 281.674C717.366 291.74 665.114 299.986 618.426 316.896C533.057 347.83 475.373 404.227 424.902 459.998C404.37 482.666 383.984 510.666 401.352 534.598C414.437 552.502 444.478 561.334 472.753 567.193C612.818 596.227 763.907 586.997 908.27 570.893C1020.84 558.311 1133.47 541.372 1236.97 509.025C1285.97 493.727 1333.47 474.61 1369.44 447.356C1393.67 429.034 1412.04 407.51 1427.45 385.259C1493.82 289.562 1505.46 175.842 1449.66 77.1415C1441.48 62.7188 1415.89 28.2537 1387.57 15.5518C1373.62 9.25556 1358.96 8.25095 1345.29 17.7003C1305.13 45.4017 1274.05 78.534 1231.85 105.658C1211.86 118.496 1191.12 130.764 1169.62 142.461C1101.5 179.158 1027.33 210.416 948.6 235.612Z" stroke="white" stroke-opacity="0.08" stroke-width="1.07" stroke-linecap="round" stroke-linejoin="round"/>
<path d="M958.682 239.58C902.647 257.732 844.184 272.334 784.661 284.151C735.588 293.918 685.191 301.905 640.166 318.268C557.887 348.177 502.265 402.645 453.678 456.526C433.925 478.409 414.231 505.454 431.084 528.49C443.757 545.797 472.886 554.351 500.263 559.971C635.853 588.001 782.218 578.87 921.811 563.154C1030.73 550.88 1139.55 534.369 1239.74 502.977C1287.1 488.117 1333.03 469.586 1367.79 443.237C1391.21 425.502 1409.01 404.664 1423.93 383.14C1488.25 290.457 1499.42 180.397 1445.8 84.7401C1437.85 70.5363 1412.77 37.4338 1385.25 25.2591C1371.65 19.2911 1357.43 18.2965 1344.14 27.4673C1305.02 54.2835 1274.68 86.431 1233.63 112.81C1214.18 125.296 1194.02 137.232 1173.14 148.618C1106.99 184.339 1035.04 214.856 958.682 239.58Z" stroke="white" stroke-opacity="0.08" stroke-width="1.1" stroke-linecap="round" stroke-linejoin="round"/>
<path d="M968.75 243.548C914.82 261.174 858.432 275.199 801.073 286.637C753.811 296.087 705.268 303.835 661.906 319.63C582.66 348.535 529.142 401.064 482.454 452.975C463.466 474.062 444.523 500.142 460.832 522.333C473.122 539.044 501.308 547.259 527.802 552.72C658.933 579.725 800.558 570.624 935.397 555.376C1040.59 543.44 1145.71 527.316 1242.42 496.88C1288.16 482.477 1332.5 464.523 1366.06 439.04C1388.69 421.882 1405.89 401.75 1420.32 380.941C1482.61 291.272 1493.27 184.873 1441.87 92.1604C1434.13 78.2351 1409.59 46.4058 1382.82 34.7881C1369.57 29.0588 1355.81 28.1935 1342.9 37.0659C1304.86 63.1659 1275.2 94.3287 1235.35 119.951C1216.46 132.086 1196.88 143.691 1176.61 154.765C1112.45 189.518 1042.73 219.299 968.75 243.548Z" stroke="white" stroke-opacity="0.08" stroke-width="1.13" stroke-linecap="round" stroke-linejoin="round"/>
<path d="M978.832 247.517C926.992 264.636 872.679 278.064 817.498 289.124C772.032 298.255 725.343 305.755 683.645 320.953C607.445 348.804 556.018 399.443 511.243 449.424C493.006 469.726 474.814 494.831 490.636 516.176C502.544 532.29 529.789 540.208 555.399 545.459C682.07 571.46 818.97 562.488 949.026 547.598C1050.59 535.94 1151.96 520.274 1245.23 490.783C1289.39 476.857 1332.07 459.461 1364.54 434.843C1386.37 418.272 1402.97 398.826 1416.92 378.744C1477.18 292.078 1487.35 189.349 1438.15 99.6306C1430.61 85.8843 1406.64 55.4276 1380.61 44.357C1367.78 38.9063 1354.4 38.1304 1341.89 46.7144C1304.87 71.9988 1275.99 102.187 1237.27 127.063C1218.93 138.84 1199.92 150.113 1180.26 160.882C1118.04 194.684 1050.49 223.739 978.832 247.517Z" stroke="white" stroke-opacity="0.08" stroke-width="1.17" stroke-linecap="round" stroke-linejoin="round"/>
<path d="M988.915 251.486C939.18 268.047 886.928 280.938 833.925 291.601C790.254 300.444 745.406 307.685 705.385 322.326C632.218 349.182 582.895 397.921 540.019 445.923C522.562 465.439 505.106 489.569 520.34 510.069C531.85 525.586 558.152 533.205 582.865 538.248C705.032 563.234 837.222 554.352 962.524 539.879C1060.35 528.51 1158.05 513.272 1247.88 484.735C1290.39 471.237 1331.56 454.448 1362.8 430.695C1383.85 414.711 1399.87 395.961 1413.33 376.595C1471.53 292.944 1481.23 193.875 1434.22 107.14C1426.86 93.6328 1403.46 64.4991 1378.18 53.9855C1365.75 48.8132 1352.78 48.107 1340.65 56.4025C1304.68 80.8912 1276.55 110.114 1238.97 134.225C1221.19 145.657 1202.77 156.598 1183.72 167.049C1123.54 199.915 1058.21 228.229 988.915 251.486Z" stroke="white" stroke-opacity="0.08" stroke-width="1.2" stroke-linecap="round" stroke-linejoin="round"/>
<path d="M998.997 255.454C951.352 271.478 901.161 283.802 850.336 294.087C808.461 302.601 765.467 309.604 727.095 323.728C656.989 349.589 609.756 396.339 568.779 442.441C552.088 461.171 535.397 484.327 550.071 503.991C561.199 518.911 586.56 526.212 610.419 531.056C728.17 555.037 855.591 546.245 976.124 532.17C1070.32 521.109 1164.25 506.309 1250.65 478.707C1291.52 465.657 1331.1 449.454 1361.18 426.566C1381.42 411.159 1396.85 393.106 1409.76 374.466C1465.92 293.828 1475.15 198.41 1430.36 114.679C1423.25 101.4 1400.37 73.5797 1375.9 63.633C1363.77 58.7393 1351.22 58.1126 1339.44 66.1197C1304.56 89.7927 1277.17 118.021 1240.83 141.396C1223.58 152.477 1205.73 163.086 1187.3 173.225C1129.08 205.123 1065.95 232.692 998.997 255.454Z" stroke="white" stroke-opacity="0.08" stroke-width="1.23" stroke-linecap="round" stroke-linejoin="round"/>
<path d="M1009.07 259.423C963.525 274.91 915.409 286.667 866.778 296.574C826.698 304.78 785.559 311.494 748.85 325.091C681.777 349.958 636.649 394.718 597.57 438.93C581.659 456.834 565.704 479.055 579.834 497.874C590.579 512.188 614.997 519.2 637.914 523.835C751.25 546.802 873.887 538.099 989.695 524.432C1080.16 513.68 1170.43 499.287 1253.38 472.66C1292.64 460.057 1330.64 444.431 1359.55 422.409C1378.99 407.589 1393.83 390.232 1406.31 372.308C1460.45 294.724 1469.24 202.906 1426.57 122.189C1419.66 109.129 1397.3 82.6414 1373.58 73.2518C1361.82 68.6862 1349.75 68.0795 1338.33 75.7981C1304.47 98.6754 1277.79 125.919 1242.55 148.548C1225.87 159.27 1208.61 169.549 1190.77 179.383C1136.66 209.123 1073.03 237.65 1009.07 259.423Z" stroke="white" stroke-opacity="0.08" stroke-width="1.27" stroke-linecap="round" stroke-linejoin="round"/>
<path d="M1019.15 263.392C975.697 278.312 929.657 289.532 883.204 299.051C844.935 306.948 805.636 313.453 770.59 326.454C706.563 350.326 663.54 393.156 626.345 435.419C611.185 452.577 595.98 473.783 609.566 491.757C619.869 505.474 643.419 512.178 665.497 516.624C774.314 538.576 892.271 529.972 1003.27 516.703C1090.03 506.249 1176.58 492.294 1256.11 466.612C1293.74 454.457 1330.17 439.418 1357.89 418.261C1376.55 404.018 1390.78 387.367 1402.78 370.159C1454.88 295.559 1463.23 207.412 1422.71 129.709C1416.01 116.878 1394.21 91.7127 1371.19 82.8702C1359.9 78.5434 1348.22 78.0659 1337.22 85.4961C1304.38 107.558 1278.48 133.827 1244.39 155.709C1228.2 166.074 1211.58 176.06 1194.35 185.549C1142.39 214.156 1080.79 242.176 1019.15 263.392Z" stroke="white" stroke-opacity="0.08" stroke-width="1.3" stroke-linecap="round" stroke-linejoin="round"/>
<path d="M1029.23 267.361C987.87 281.773 943.86 292.406 899.704 301.537C863.142 309.117 825.756 315.363 792.33 327.817C731.335 350.694 690.416 391.575 655.135 431.908C640.755 448.271 626.286 468.512 639.327 485.62C649.306 498.74 671.841 505.145 692.977 509.373C797.334 530.32 910.552 521.796 1016.79 508.935C1099.88 498.79 1182.7 485.252 1258.8 460.525C1294.8 448.828 1329.64 434.365 1356.19 414.074C1374.05 400.417 1387.71 384.453 1399.22 367.961C1449.26 296.345 1457.2 211.868 1418.81 137.199C1412.33 124.596 1391.06 100.754 1368.76 92.439C1357.86 88.3807 1346.58 87.9829 1335.97 95.1345C1304.18 116.39 1279.01 141.675 1246.08 162.772C1230.48 172.788 1214.41 182.446 1197.79 191.617C1148.1 219.179 1088.49 246.731 1029.23 267.361Z" stroke="white" stroke-opacity="0.08" stroke-width="1.33" stroke-linecap="round" stroke-linejoin="round"/>
<path d="M1039.3 271.329C1000.03 285.195 958.138 295.271 916.057 304.024C881.364 311.295 845.774 317.302 814.07 329.179C756.121 351.002 717.293 389.993 683.911 428.397C670.296 443.973 656.593 463.21 669.074 479.532C678.686 492.045 700.263 498.142 720.502 502.171C820.399 522.064 928.892 513.679 1030.35 501.226C1109.83 491.379 1188.87 478.269 1261.52 454.477C1295.91 443.227 1329.23 429.341 1354.53 409.926C1371.61 396.856 1384.66 381.588 1395.74 365.812C1443.77 297.18 1451.28 216.364 1415.01 144.698C1408.62 132.344 1388.02 109.825 1366.44 102.097C1355.93 98.3169 1345.07 97.9987 1334.84 104.852C1304.09 125.312 1279.66 149.612 1247.89 169.993C1232.85 179.651 1217.35 188.991 1201.34 197.843C1153.84 224.202 1096.19 251.237 1039.3 271.329Z" stroke="white" stroke-opacity="0.08" stroke-width="1.37" stroke-linecap="round" stroke-linejoin="round"/>
<path d="M1049.38 275.298C1012.2 288.617 972.385 298.176 932.483 306.501C899.586 313.464 865.85 319.233 835.809 330.552C780.908 351.35 744.169 388.412 712.686 424.886C699.836 439.677 686.884 457.978 698.821 473.416C708.049 485.352 728.685 491.131 748.041 494.95C843.463 513.849 947.216 505.533 1043.89 493.488C1119.6 483.939 1195.01 471.257 1264.23 448.43C1296.98 437.638 1328.66 424.329 1352.85 405.778C1369.04 393.285 1381.6 378.714 1392.12 363.664C1438.13 298.096 1445.27 220.87 1411.1 152.238C1405.05 140.093 1384.88 118.897 1364.1 111.726C1353.96 108.234 1343.49 108.006 1333.69 114.56C1304.03 134.235 1280.29 157.51 1249.66 177.105C1235.15 186.405 1220.22 195.417 1204.84 203.961C1159.57 229.235 1103.94 255.763 1049.38 275.298Z" stroke="white" stroke-opacity="0.08" stroke-width="1.4" stroke-linecap="round" stroke-linejoin="round"/>
<path d="M1059.46 279.257C1024.37 292.029 986.633 301.01 948.909 308.988C917.793 315.642 885.927 321.152 857.549 331.915C805.68 351.709 771.046 386.83 741.461 421.375C729.392 435.38 717.19 452.707 728.568 467.299C737.399 478.628 757.107 484.118 775.565 487.739C866.527 505.643 965.556 497.397 1057.49 485.75C1129.51 476.509 1201.21 464.255 1266.98 442.382C1298.11 432.028 1328.21 419.306 1351.22 401.601C1366.7 389.665 1378.58 375.819 1388.64 361.486C1432.57 298.932 1439.34 225.316 1407.24 159.708C1401.35 147.772 1381.79 127.879 1361.74 121.304C1352 118.092 1342.01 117.932 1332.53 124.199C1303.93 143.097 1280.91 165.388 1251.47 184.267C1237.5 193.219 1223.2 201.912 1208.39 210.178C1165.29 234.259 1111.58 260.289 1059.46 279.257Z" stroke="white" stroke-opacity="0.08" stroke-width="1.43" stroke-linecap="round" stroke-linejoin="round"/>
<path d="M1069.54 283.226C1036.53 295.47 1000.91 303.875 965.335 311.464C936.015 317.81 906.003 323.082 879.288 333.277C830.466 352.057 797.923 385.249 770.251 417.824C758.932 431.043 747.481 447.395 758.329 461.142C766.777 471.874 785.529 477.056 803.089 480.478C889.592 497.387 983.881 489.211 1070.97 477.971C1139.33 469.019 1207.3 457.203 1269.68 436.285C1299.11 426.388 1327.7 414.243 1349.53 397.423C1364.25 386.094 1375.51 372.915 1385.06 359.308C1426.96 299.767 1433.38 229.763 1403.34 167.198C1397.72 155.491 1378.66 136.96 1359.36 130.903C1350 127.919 1340.43 127.919 1331.39 133.887C1303.84 151.97 1281.56 173.286 1253.28 191.418C1239.87 200.012 1226.14 208.377 1211.95 216.335C1171.02 239.282 1119.29 264.805 1069.54 283.226Z" stroke="white" stroke-opacity="0.08" stroke-width="1.47" stroke-linecap="round" stroke-linejoin="round"/>
<path d="M1079.61 287.194C1048.7 298.852 1015.11 306.739 981.761 313.951C954.237 319.978 926.08 325.011 901.028 334.64C855.238 352.404 824.799 383.667 799.027 414.352C788.488 426.786 777.787 442.203 788.076 455.074C796.142 465.2 813.951 470.083 830.628 473.296C912.656 489.211 1002.22 481.114 1084.62 470.312C1149.28 461.678 1213.52 450.28 1272.44 430.307C1300.32 420.857 1327.26 409.299 1347.91 393.345C1361.8 382.603 1372.5 370.119 1381.57 357.229C1421.44 300.692 1427.54 234.298 1399.53 174.787C1394.12 163.309 1375.61 146.101 1357.05 140.591C1348.08 137.935 1338.93 137.945 1330.2 143.634C1303.71 160.912 1282.16 181.243 1255.03 198.629C1242.17 206.875 1229.02 214.912 1215.44 222.561C1176.74 244.304 1127.01 269.33 1079.61 287.194Z" stroke="white" stroke-opacity="0.08" stroke-width="1.5" stroke-linecap="round" stroke-linejoin="round"/>
<path d="M1089.69 291.163C1060.86 302.254 1029.35 309.564 998.188 316.437C972.445 322.117 946.127 326.901 922.768 336.012C879.966 352.703 851.779 382.115 827.802 410.841C818.073 422.499 808.079 436.891 817.823 448.957C825.521 458.486 842.374 463.061 858.153 466.075C935.721 480.995 1020.55 472.968 1098.17 462.544C1159.15 454.209 1219.69 443.227 1275.17 424.209C1301.43 415.257 1326.79 404.237 1346.26 389.147C1359.36 378.992 1369.47 367.195 1378.04 355.03C1415.88 301.508 1421.68 238.714 1395.7 182.257C1390.52 170.998 1372.55 155.113 1354.72 150.169C1346.16 147.792 1337.41 147.872 1329.07 153.273C1303.62 169.754 1282.81 189.081 1256.84 205.731C1244.54 213.629 1231.97 221.338 1219 228.678C1182.45 249.327 1134.72 273.846 1089.69 291.163Z" stroke="white" stroke-opacity="0.08" stroke-width="1.53" stroke-linecap="round" stroke-linejoin="round"/>
<path d="M1099.78 295.132C1073.03 305.655 1043.6 312.429 1014.61 318.914C990.667 324.285 966.189 328.861 944.508 337.375C904.767 353.051 878.671 380.544 856.578 407.33C847.614 418.202 838.385 431.62 847.57 442.839C854.929 451.791 870.796 456.049 885.692 458.854C958.786 472.719 1038.89 464.822 1111.74 454.805C1169.03 446.778 1225.86 436.225 1277.91 418.152C1302.53 409.608 1326.32 399.253 1344.6 384.99C1356.9 375.411 1366.44 364.321 1374.52 352.872C1410.3 302.363 1415.84 243.16 1391.83 189.747C1386.87 178.716 1369.44 164.164 1352.35 159.778C1344.17 157.669 1335.84 157.788 1327.88 162.951C1303.47 178.637 1283.4 196.998 1258.61 212.913C1246.83 220.452 1234.87 227.833 1222.49 234.875C1188.18 254.35 1142.43 278.352 1099.78 295.132Z" stroke="white" stroke-opacity="0.08" stroke-width="1.57" stroke-linecap="round" stroke-linejoin="round"/>
<path d="M1109.83 299.101C1085.16 309.047 1057.81 315.294 1031.03 321.401C1008.86 326.454 986.251 330.741 966.262 338.738C929.554 353.4 905.577 378.962 885.397 403.819C877.199 413.905 868.72 426.348 877.346 436.723C884.278 445.068 899.247 449.027 913.245 451.643C981.879 464.504 1057.27 456.785 1125.34 447.077C1178.96 439.428 1232.06 429.173 1280.66 412.115C1303.66 404.018 1325.86 394.211 1342.98 380.842C1354.49 371.89 1363.42 361.446 1370.94 350.714C1404.74 303.219 1410.09 247.607 1388.02 197.267C1383.28 186.455 1366.41 173.226 1350.04 169.416C1342.26 167.596 1334.35 167.835 1326.76 172.659C1303.4 187.579 1284.07 204.916 1260.43 220.055C1249.2 227.236 1237.83 234.298 1226.05 241.022C1193.9 259.374 1150.16 282.858 1109.83 299.101Z" stroke="white" stroke-opacity="0.08" stroke-width="1.6" stroke-linecap="round" stroke-linejoin="round"/>
<path d="M1119.93 303.069C1097.33 312.419 1072.08 318.158 1047.47 323.888C1027.1 328.622 1006.34 332.67 987.973 340.101C954.296 353.747 932.438 377.381 914.143 400.308C906.783 409.608 898.997 421.076 907.063 430.615C913.628 438.354 927.67 442.014 940.74 444.411C1004.93 456.258 1075.58 448.638 1138.87 439.328C1188.83 431.988 1238.19 422.21 1283.37 406.047C1304.74 398.398 1325.36 389.138 1341.28 376.674C1352 368.26 1360.42 358.562 1367.45 348.545C1399.17 304.074 1404.25 252.063 1384.12 204.776C1379.6 194.183 1363.27 182.287 1347.66 179.015C1340.3 177.463 1332.76 177.791 1325.58 182.327C1303.25 196.391 1284.66 212.793 1262.19 227.176C1251.51 234.01 1240.71 240.743 1229.55 247.169C1199.62 264.387 1157.89 287.353 1119.93 303.069Z" stroke="white" stroke-opacity="0.08" stroke-width="1.63" stroke-linecap="round" stroke-linejoin="round"/>
<path d="M1130.01 307.038C1109.4 315.791 1086.31 321.023 1063.89 326.364C1045.32 330.8 1026.4 334.59 1009.71 341.473C979.067 354.095 959.314 375.799 942.918 396.796C936.265 405.311 929.303 415.805 936.809 424.498C942.991 431.64 956.062 435.002 968.278 437.19C1027.99 448.032 1093.9 440.502 1152.44 431.59C1198.7 424.558 1244.36 415.198 1286.09 399.989C1305.84 392.798 1324.89 384.144 1339.64 372.517C1349.56 364.689 1357.3 355.687 1363.92 346.387C1393.61 304.919 1398.48 256.459 1380.26 212.286C1375.98 201.912 1360.21 191.338 1345.3 188.633C1338.3 187.36 1331.22 187.758 1324.4 192.015C1303.12 205.274 1285.28 220.691 1263.95 234.328C1253.82 240.803 1243.61 247.209 1233.04 253.326C1205.33 269.41 1165.63 291.849 1130.01 307.038Z" stroke="white" stroke-opacity="0.08" stroke-width="1.67" stroke-linecap="round" stroke-linejoin="round"/>
<path d="M1140.08 311.007C1121.6 319.143 1100.56 323.888 1080.39 328.851C1063.61 332.969 1046.54 336.52 1031.53 342.836C1003.85 354.444 986.191 374.218 971.693 393.285C965.806 401.014 959.609 410.533 966.571 418.381C972.37 424.936 984.484 427.979 995.803 429.969C1051.06 439.796 1112.24 432.366 1166.01 423.861C1208.58 417.128 1250.51 408.195 1288.83 393.932C1306.94 387.188 1324.4 379.121 1337.97 368.359C1346.95 360.99 1354.49 352.874 1360.4 344.209C1388.05 305.755 1392.79 260.856 1376.4 219.776C1372.36 209.611 1357.14 200.37 1342.96 198.222C1339.51 197.592 1335.88 197.58 1332.42 198.185C1328.97 198.79 1325.8 199.992 1323.24 201.673C1303 214.136 1285.9 228.529 1265.73 241.46C1256.16 247.577 1246.6 253.664 1236.59 259.473C1211.05 274.423 1173.37 296.325 1140.08 311.007Z" stroke="white" stroke-opacity="0.08" stroke-width="1.7" stroke-linecap="round" stroke-linejoin="round"/>
<path d="M1150.16 314.975C1133.75 322.485 1114.83 326.752 1096.74 331.337C1081.76 335.137 1066.56 338.439 1053.19 344.199C1028.63 354.792 1013.1 372.636 1000.47 389.774C995.361 396.737 989.915 405.261 996.318 412.263C1001.75 418.231 1012.91 420.967 1023.33 422.747C1074.12 431.56 1130.57 424.219 1179.57 416.123C1218.47 409.687 1256.68 401.203 1291.55 387.874C1308.05 381.588 1323.93 374.098 1336.32 364.201C1344.53 357.433 1351.45 349.999 1356.93 342.07C1382.54 306.63 1387.13 265.292 1372.61 227.296C1368.81 217.349 1354.13 209.392 1340.67 207.86C1337.39 207.383 1333.98 207.455 1330.75 208.068C1327.53 208.682 1324.57 209.819 1322.13 211.381C1303 223.028 1286.57 236.486 1267.57 248.621C1258.55 254.39 1249.5 260.149 1240.17 265.65C1216.76 279.436 1181.11 300.791 1150.16 314.975Z" stroke="white" stroke-opacity="0.08" stroke-width="1.73" stroke-linecap="round" stroke-linejoin="round"/>
<path d="M1160.24 318.934C1145.88 325.817 1129.04 329.617 1113.14 333.854C1099.9 337.345 1086.65 340.399 1074.87 345.601C1053.34 355.189 1039.92 371.094 1029.24 386.302C1024.83 392.45 1020.22 400.029 1026.05 406.196C1031.1 411.547 1041.31 413.984 1050.85 415.575C1097.17 423.374 1148.89 416.123 1193.12 408.424C1228.33 402.297 1262.83 394.22 1294.26 381.866C1309.14 376.018 1323.43 369.105 1334.65 360.083C1342.07 353.913 1348.34 347.152 1353.32 339.951C1376.87 307.525 1381.41 269.728 1368.68 234.845C1365.13 225.117 1351.01 218.522 1338.25 217.518C1335.15 217.199 1331.98 217.356 1328.97 217.975C1325.97 218.595 1323.21 219.662 1320.9 221.099C1302.75 231.95 1287.13 244.423 1269.29 255.812C1260.82 261.223 1252.34 266.654 1243.62 271.856C1222.46 284.449 1188.86 305.247 1160.24 318.934Z" stroke="white" stroke-opacity="0.08" stroke-width="1.77" stroke-linecap="round" stroke-linejoin="round"/>
<path d="M1170.32 322.903C1157.98 329.119 1143.29 332.481 1129.6 336.301C1118.19 339.484 1106.69 342.269 1096.67 346.934C1078.17 355.498 1066.87 369.473 1058.03 382.742C1054.46 388.103 1050.56 394.678 1055.81 400.029C1060.51 404.793 1069.75 406.922 1078.39 408.305C1120.25 415.088 1167.25 407.927 1206.71 400.636C1238.24 394.817 1269.01 387.158 1297.01 375.769C1310.26 370.378 1322.97 364.042 1333.01 355.876C1339.65 350.298 1345.29 344.212 1349.82 337.743C1371.34 308.331 1375.83 274.085 1364.83 242.305C1361.52 232.806 1347.95 227.514 1335.91 227.087C1332.99 226.921 1330.04 227.16 1327.26 227.789C1324.47 228.419 1321.91 229.425 1319.72 230.747C1302.65 240.763 1287.77 252.281 1271.09 262.924C1263.16 267.987 1255.27 273.08 1247.16 277.974C1228.17 289.502 1196.67 309.674 1170.32 322.903Z" stroke="white" stroke-opacity="0.08" stroke-width="1.8" stroke-linecap="round" stroke-linejoin="round"/>
<path d="M1180.39 326.872C1170.09 332.392 1157.52 335.356 1146.02 338.808C1136.41 341.672 1126.77 344.229 1118.41 348.317C1102.94 355.866 1093.74 367.912 1086.81 379.261C1084.01 383.836 1080.92 389.456 1085.56 393.942C1089.89 398.11 1098.17 399.91 1105.91 401.113C1143.33 406.873 1185.57 399.791 1220.22 392.947C1248.07 387.427 1275.14 380.206 1299.7 369.752C1311.33 364.778 1322.47 359.059 1331.32 351.768C1337.19 346.79 1342.2 341.377 1346.26 335.635C1365.75 309.236 1370.24 278.511 1360.98 249.865C1358.03 240.555 1344.89 236.586 1333.56 236.745C1328.06 236.727 1322.75 238.052 1318.59 240.475C1302.53 249.696 1288.38 260.219 1272.87 270.106C1265.51 274.821 1258.15 279.585 1250.69 284.181C1233.87 294.475 1204.35 314.08 1180.39 326.872Z" stroke="white" stroke-opacity="0.08" stroke-width="1.83" stroke-linecap="round" stroke-linejoin="round"/>
<path d="M1190.47 330.84C1182.11 335.644 1171.77 338.22 1162.51 341.264C1154.68 343.82 1146.89 346.138 1140.21 349.659C1127.77 356.204 1120.69 366.309 1115.64 375.719C1113.61 379.519 1111.3 384.154 1115.36 387.814C1119.43 391.474 1126.65 392.887 1133.51 393.872C1166.45 398.586 1203.97 391.644 1233.9 385.178C1258.05 379.946 1281.41 373.153 1302.53 363.654C1312.76 359.26 1321.95 353.837 1329.76 347.57C1334.85 343.184 1339.22 338.442 1342.82 333.426C1360.27 310.041 1364.89 282.847 1357.2 257.334C1354.46 248.233 1341.89 245.557 1331.28 246.323C1326.22 246.601 1321.41 247.924 1317.5 250.113C1302.46 258.528 1289.08 268.076 1274.71 277.217C1267.88 281.574 1261.15 286 1254.27 290.297C1239.56 299.448 1212.08 318.436 1190.47 330.84Z" stroke="white" stroke-opacity="0.08" stroke-width="1.87" stroke-linecap="round" stroke-linejoin="round"/>
<path d="M1200.56 334.809C1194.14 338.847 1186 341.095 1178.88 343.761C1172.84 346.009 1166.91 348.078 1161.89 351.032C1152.5 356.572 1147.53 364.729 1144.38 372.218C1143.11 375.202 1141.61 378.873 1145.05 381.708C1148.5 384.542 1155.02 385.885 1160.98 386.681C1189.46 390.391 1222.24 383.528 1247.41 377.47C1267.88 372.497 1287.5 366.181 1305.19 357.577C1313.76 353.603 1321.45 348.827 1328.04 343.393C1332.36 339.606 1336.1 335.538 1339.22 331.248C1354.51 310.733 1359.44 287.402 1353.28 264.815C1350.87 255.922 1338.77 254.54 1328.86 255.912C1324.26 256.483 1319.94 257.812 1316.28 259.782C1302.28 267.381 1289.64 275.955 1276.43 284.35C1270.15 288.328 1264 292.446 1257.74 296.445C1245.24 304.422 1219.75 322.724 1200.56 334.809Z" stroke="white" stroke-opacity="0.08" stroke-width="1.9" stroke-linecap="round" stroke-linejoin="round"/>
<path d="M1210.62 338.778C1206.09 342.01 1200.25 343.97 1195.3 346.228C1191.09 347.994 1187.18 350.061 1183.63 352.395C1177.27 356.92 1174.4 363.117 1173.15 368.697C1172.65 370.905 1171.99 373.571 1174.81 375.58C1178.11 377.948 1183.44 378.853 1188.5 379.43C1212.52 382.145 1240.58 375.342 1260.96 369.702C1277.8 365.162 1293.61 359.052 1307.93 351.549C1314.82 347.982 1321.02 343.845 1326.39 339.235C1329.93 336.044 1333.04 332.649 1335.71 329.09C1349.1 311.635 1353.9 291.75 1349.42 272.324C1347.38 263.631 1335.68 263.531 1326.52 265.53C1322.4 266.373 1318.54 267.703 1315.11 269.459C1302.15 276.253 1290.25 283.852 1278.23 291.491C1272.49 295.142 1266.89 298.892 1261.26 302.602C1250.92 309.395 1227.27 326.901 1210.62 338.778Z" stroke="white" stroke-opacity="0.08" stroke-width="1.93" stroke-linecap="round" stroke-linejoin="round"/>
<path d="M1220.71 342.746C1217.97 345.134 1214.5 346.854 1211.73 348.714C1209.34 350.232 1207.2 351.923 1205.36 353.757C1202.32 357.191 1201.11 361.224 1201.93 365.186C1202.19 366.598 1202.43 368.25 1204.56 369.463C1207.59 371.194 1211.85 371.85 1216.04 372.208C1235.57 373.949 1258.89 367.165 1274.53 361.963C1287.65 357.641 1299.81 352.096 1310.65 345.492C1315.85 342.358 1320.57 338.875 1324.73 335.097C1327.49 332.505 1329.98 329.783 1332.17 326.951C1343.71 312.559 1348.39 296.11 1345.57 279.854C1343.96 271.359 1332.57 272.523 1324.17 275.169C1320.57 276.256 1317.15 277.589 1313.95 279.147C1302.09 285.195 1290.75 291.705 1280.01 298.643C1274.81 301.935 1269.71 305.347 1264.79 308.769C1256.58 314.369 1234.35 330.84 1220.71 342.746Z" stroke="white" stroke-opacity="0.08" stroke-width="1.97" stroke-linecap="round" stroke-linejoin="round"/>
<path d="M1230.79 346.715C1225.68 353.837 1224.99 360.183 1234.31 363.356C1250.17 368.747 1274.81 360.024 1288.11 354.235C1304.97 346.804 1318.89 336.696 1328.64 324.793C1337.94 313.464 1343.36 300.384 1341.71 287.363C1340.65 279.058 1329.44 281.495 1321.83 284.787C1302.17 293.273 1284.19 303.406 1268.31 314.946C1262.21 319.342 1239.72 334.262 1230.79 346.715Z" stroke="white" stroke-opacity="0.08" stroke-width="2" stroke-linecap="round" stroke-linejoin="round"/>
<path d="M444.935 157.659C481.305 159.41 521.046 166.492 540.873 187.171C555.856 202.787 555.974 223.337 547.099 240.952C538.223 258.568 521.4 273.776 503.84 288.159C441.918 338.778 368.22 382.135 294.832 425.234C229.642 463.568 163.613 502.301 86.8692 529.216C68.4853 535.642 45.4356 541.232 28.1262 533.563C20.4577 530.161 15.4385 524.681 10.6696 519.379C-5.2709 501.595 -21.3145 483.382 -28.409 463.151C-37.3875 437.588 -31.4411 410.841 -25.4652 384.881C-14.2936 336.411 -0.619752 273.946 57.9761 239.719C115.247 206.269 213.29 184.963 284.809 170.918C336.707 160.673 390.814 155.073 444.935 157.659Z" stroke="white" stroke-opacity="0.08" stroke-linecap="round" stroke-linejoin="round"/>
<path d="M522.666 245.995C514.497 263.163 498.777 278.401 481.865 292.476C423.931 340.727 353.958 381.846 284.397 422.578C222.827 458.674 160.243 494.99 87.7966 519.886C70.4578 525.854 48.7769 530.986 32.4537 523.735C25.2267 520.533 20.4725 515.37 15.9686 510.377C0.793402 493.557 -14.3229 476.31 -21.02 457.143C-29.4686 432.952 -23.846 407.628 -18.0762 383.05C-7.37558 337.106 5.90084 278.123 61.2585 245.587C115.424 213.758 207.858 193.328 275.654 179.939C324.535 170.291 375.477 165.019 426.36 167.566C460.567 169.257 497.894 175.981 516.601 195.416C530.658 210.088 530.599 229.334 522.666 245.995Z" stroke="white" stroke-opacity="0.08" stroke-width="1.07" stroke-linecap="round" stroke-linejoin="round"/>
<path d="M498.232 251.028C490.755 267.759 476.153 282.977 459.889 296.783C405.783 342.647 339.71 381.558 273.887 419.922C215.998 453.741 156.857 487.679 88.7676 510.596C72.4591 516.077 52.1324 520.791 36.81 513.968C30.0099 510.984 25.5354 506.11 21.2964 501.415C6.8866 485.57 -7.31711 469.278 -13.5873 451.185C-21.5061 428.367 -16.222 404.436 -10.7613 381.26C-0.458122 337.853 12.3326 282.35 64.4668 251.506C115.541 221.258 202.338 201.772 266.41 188.931C312.274 179.83 360.051 174.946 407.711 177.383C439.768 179.024 474.682 185.4 492.241 203.633C505.459 217.399 505.238 235.352 498.232 251.028Z" stroke="white" stroke-opacity="0.08" stroke-width="1.13" stroke-linecap="round" stroke-linejoin="round"/>
<path d="M473.798 256.071C467.013 272.364 453.56 287.552 437.914 301.1C387.678 344.557 325.447 381.27 263.392 417.277C209.168 448.857 153.486 480.368 89.7096 501.316C74.4461 506.289 55.4735 510.596 41.1374 504.19C34.7935 501.356 30.5839 496.85 26.5951 492.463C12.9802 477.543 -0.325694 462.245 -6.1838 445.227C-13.5432 423.772 -8.61241 401.302 -3.41665 379.479C6.34196 338.599 18.7941 286.578 67.7049 257.424C115.688 228.768 196.863 210.157 257.225 197.993C300.072 189.429 344.67 184.923 389.077 187.27C418.971 188.862 451.47 194.879 467.896 211.898C480.26 224.699 479.863 241.37 473.798 256.071Z" stroke="white" stroke-opacity="0.08" stroke-width="1.2" stroke-linecap="round" stroke-linejoin="round"/>
<path d="M449.365 261.104C443.286 277.018 430.952 292.127 415.924 305.406C369.545 346.446 311.184 381.001 252.883 414.62C202.338 443.953 150.16 473.057 90.6958 492.025C76.4626 496.571 58.903 500.37 45.5089 494.402C39.6213 491.757 35.6619 487.569 31.9381 483.461C19.0885 469.536 6.70992 455.163 1.26394 439.218C-5.60977 419.136 -0.988047 398.079 3.95749 377.639C13.2598 339.304 25.2998 290.755 70.9578 263.252C115.836 236.287 191.373 218.482 248.026 206.994C287.767 198.917 329.289 194.829 370.472 197.107C398.202 198.639 428.288 204.308 443.566 220.104C455.061 232 454.605 247.407 449.365 261.104Z" stroke="white" stroke-opacity="0.08" stroke-width="1.27" stroke-linecap="round" stroke-linejoin="round"/>
<path d="M424.917 266.147C419.559 281.614 408.329 296.693 394.007 309.723C351.44 348.306 296.995 380.692 242.403 411.965C195.523 439.049 146.73 465.746 91.6671 482.745C78.4201 486.813 62.2294 490.205 49.8803 484.645C44.4196 482.188 40.7546 478.319 37.2662 474.559C25.2409 461.628 13.716 448.18 8.69688 433.31C2.35305 414.6 6.65096 394.966 11.3316 375.908C20.1629 340.1 31.7908 295.032 74.2253 269.26C115.997 243.807 185.883 226.838 238.841 216.026C275.638 208.486 313.907 204.766 351.852 206.964C377.419 208.456 405.091 213.758 419.235 228.34C429.818 239.301 429.318 253.455 424.917 266.147Z" stroke="white" stroke-opacity="0.08" stroke-width="1.33" stroke-linecap="round" stroke-linejoin="round"/>
<path d="M400.484 271.18C395.504 286.65 385.793 301.246 371.974 314.03C333.175 350.176 282.63 380.315 231.88 409.309C188.591 434.066 143.346 458.436 92.6245 473.455C80.4667 477.056 65.5712 480.01 54.223 474.868C49.2038 472.6 45.8185 469.059 42.5803 465.597C31.3351 453.602 20.7375 441.158 16.0864 427.362C10.1988 410.015 14.2318 391.803 18.6475 374.118C27.0078 340.846 38.2236 299.26 77.4346 275.179C116.116 251.307 180.378 235.273 229.628 225.048C263.363 218.085 298.483 214.713 333.204 216.822C356.622 218.264 381.865 223.217 394.891 236.576C404.664 246.612 404.09 259.503 400.484 271.18Z" stroke="white" stroke-opacity="0.08" stroke-width="1.4" stroke-linecap="round" stroke-linejoin="round"/>
<path d="M376.05 276.223C371.938 291.365 363.053 305.731 349.998 318.347C314.923 351.957 268.293 380.016 221.384 406.653C181.746 429.153 139.974 451.125 93.5802 464.175C82.4675 467.298 68.9261 469.815 58.5641 465.1C54.0012 463.021 50.8808 459.798 47.8929 456.645C37.4425 445.664 27.7428 434.126 23.5773 421.404C18.2932 405.43 21.9288 388.64 26.0795 372.337C33.9688 341.602 44.7872 303.487 80.7601 281.097C116.336 258.846 174.961 243.668 220.501 234.079C251.219 227.614 283.174 224.65 314.702 226.679C335.956 228.071 358.858 232.647 370.633 244.811C379.479 253.913 378.891 265.63 376.05 276.223Z" stroke="white" stroke-opacity="0.08" stroke-width="1.47" stroke-linecap="round" stroke-linejoin="round"/>
<path d="M351.617 281.266C348.4 296.071 340.356 310.207 328.067 322.654C296.672 353.738 254.075 379.718 210.934 403.998C174.961 424.239 136.633 443.785 94.6553 454.895C84.5729 457.541 72.3856 459.62 63.0244 455.323C58.9032 453.433 56.0477 450.538 53.3247 447.694C43.5367 437.618 34.7642 427.094 30.9373 415.447C26.1684 400.845 29.4654 385.467 33.3807 370.547C40.7401 342.349 51.1905 307.714 83.94 286.996C116.41 266.356 169.427 252.063 211.243 243.101C238.93 237.133 267.72 234.577 295.965 236.536C315.1 237.869 335.485 242.116 346.23 253.038C354.281 261.214 353.737 271.658 351.617 281.266Z" stroke="white" stroke-opacity="0.08" stroke-width="1.53" stroke-linecap="round" stroke-linejoin="round"/>
<path d="M327.184 286.299C324.8 300.294 317.793 314.896 306.048 326.971C278.273 355.498 239.813 379.42 200.381 401.342C168.073 419.326 133.219 436.504 95.509 445.605C86.4717 447.783 75.6533 449.424 67.2783 445.555C63.5838 443.854 61.008 441.268 58.5353 438.732C49.7039 429.631 41.7705 420.062 38.3851 409.489C34.1461 396.26 37.1193 382.304 40.7696 368.757C47.7022 343.095 57.6963 311.942 87.2223 292.924C116.748 273.906 163.966 260.478 202.029 252.143C226.698 246.752 252.309 244.533 277.331 246.403C294.273 247.687 312.288 251.576 321.885 261.323C329.083 268.525 328.641 277.745 327.184 286.299Z" stroke="white" stroke-opacity="0.08" stroke-width="1.6" stroke-linecap="round" stroke-linejoin="round"/>
<path d="M302.751 291.342C301.191 305.009 295.127 319.432 284.058 331.288C259.86 357.219 225.506 379.132 189.857 398.687C161.214 414.412 129.804 429.193 96.4513 436.325C88.4442 438.026 78.98 439.229 71.5911 435.778C68.4817 434.13 65.8516 432.106 63.8343 429.81C55.7095 421.673 48.7622 413.06 45.789 403.561C42.0651 391.694 44.7145 379.171 48.0998 367.007C54.5614 343.881 64.1581 316.199 90.446 298.872C116.734 281.545 158.491 268.883 192.845 261.174C213.999 256.268 236.499 254.59 258.727 256.261C273.446 257.504 289.092 261.025 297.555 269.519C303.884 275.826 303.59 283.853 302.751 291.342Z" stroke="white" stroke-opacity="0.08" stroke-width="1.67" stroke-linecap="round" stroke-linejoin="round"/>
<path d="M278.317 296.375C277.669 309.734 272.43 323.947 262.126 335.595C241.417 358.91 211.243 378.833 179.377 396.031C154.355 409.509 126.389 421.892 97.437 427.035C90.475 428.268 82.3649 429.024 75.9769 426.04C73.2795 424.577 70.9871 422.802 69.2062 420.798C61.8468 413.626 55.8268 405.977 53.2804 397.543C50.0864 387.049 52.3973 375.949 55.5177 365.156C61.523 344.567 70.737 320.396 93.7867 304.73C116.954 288.945 153.104 277.288 183.69 270.206C201.781 265.887 221.118 264.491 240.151 266.128C252.765 267.311 265.953 270.484 273.283 277.755C278.685 283.126 278.611 289.96 278.317 296.375Z" stroke="white" stroke-opacity="0.08" stroke-width="1.73" stroke-linecap="round" stroke-linejoin="round"/>
<path d="M253.869 301.438C254.266 314.488 249.689 328.473 240.107 339.931C222.827 360.591 196.995 378.574 168.882 393.395C147.599 404.605 123.077 414.561 98.4084 417.754C92.5208 418.51 85.7207 418.838 80.3336 416.232C78.0281 415.01 76.0386 413.538 74.4461 411.876C67.8815 405.669 62.671 398.945 60.6103 391.614C57.9462 382.493 59.9333 372.815 62.7887 363.406C68.323 345.342 77.1249 324.614 96.907 310.688C117.101 296.465 147.555 285.712 174.505 279.237C189.533 275.516 205.7 274.398 221.532 275.984C231.982 277.118 242.756 279.963 248.953 285.991C253.486 290.437 253.707 296.077 253.869 301.438Z" stroke="white" stroke-opacity="0.08" stroke-width="1.8" stroke-linecap="round" stroke-linejoin="round"/>
<path d="M229.436 306.411C230.957 319.476 227.042 332.568 218.132 344.209C204.179 362.182 182.807 378.266 158.374 390.719C140.785 399.671 119.692 407.24 99.3657 408.454C94.479 408.742 89.0625 408.633 84.6468 406.465C82.7818 405.45 81.1455 404.257 79.7896 402.924C73.9421 397.864 69.9113 391.957 68.0145 385.666C65.8656 377.918 67.5288 369.652 70.1193 361.625C75.1826 346.108 83.5723 328.891 100.131 316.607C117.161 303.984 142.006 294.157 165.218 288.278C177.185 285.149 190.197 284.31 202.825 285.852C211.126 286.936 219.472 289.402 224.535 294.237C228.288 297.738 228.892 302.184 229.436 306.411Z" stroke="white" stroke-opacity="0.08" stroke-width="1.87" stroke-linecap="round" stroke-linejoin="round"/>
<path d="M205.003 311.494C208.329 323.858 203.987 337.355 196.171 348.535C185.166 364.211 168.578 377.796 147.893 388.073C133.969 394.837 116.307 399.91 100.337 399.184C96.2867 399.124 92.3534 398.255 89.0327 396.687C87.5799 395.88 86.2753 394.959 85.1469 393.942C80.1831 389.823 76.8684 384.912 75.5208 379.678C73.9017 373.303 75.2264 366.459 77.5667 359.785C82.159 346.795 90.1072 333.039 103.472 322.465C117.352 311.415 136.648 302.572 156.121 297.251C165.026 294.719 174.888 294.158 184.293 295.649C190.637 296.575 196.299 298.975 200.293 302.433C203.148 305.039 204.134 308.281 205.003 311.494Z" stroke="white" stroke-opacity="0.08" stroke-width="1.93" stroke-linecap="round" stroke-linejoin="round"/>
<path d="M84.9263 358.045C81.1435 367.663 80.9669 377.789 90.4606 385.01C102.604 394.241 123.696 391.545 137.37 385.418C154.355 377.799 166.528 365.405 174.167 352.843C180.893 341.802 186.442 328.264 180.555 316.527C175.521 306.501 161.42 301.906 146.922 306.332C116.484 315.632 93.4338 336.47 84.9263 358.045Z" stroke="white" stroke-opacity="0.08" stroke-width="2" stroke-linecap="round" stroke-linejoin="round"/>
<path d="M183.307 503.285C320.281 440.025 426.477 351.271 551.279 277.377C569.604 266.525 592.271 255.286 616.042 258.956C620.575 259.652 625.535 261.403 626.257 264.496C626.431 266.047 625.919 267.598 624.785 268.952C619.751 276.024 609.772 280.769 600.337 285.344C476.306 345.611 377.752 426.747 314.452 520.702" stroke="white" stroke-opacity="0.08" stroke-width="2" stroke-linecap="round" stroke-linejoin="round"/>
<path d="M214.349 503.683L557.873 284.598C568.338 277.914 580.231 270.872 593.757 268.683C594.862 268.504 596.023 268.566 597.073 268.86C598.123 269.154 599.007 269.666 599.599 270.322C600.192 270.977 600.461 271.743 600.368 272.508C600.276 273.274 599.827 274 599.086 274.582C595.038 277.428 590.468 279.912 585.485 281.972C444.812 345.842 334.012 435.5 266.086 540.426" stroke="white" stroke-opacity="0.08" stroke-linecap="round" stroke-linejoin="round"/>
<path d="M240.078 504.011L277.876 475.852C288.871 467.666 299.954 459.39 313.76 453.393C316.218 455.382 314.084 458.366 311.92 460.455C292.393 479.612 272.214 498.461 251.382 517.001" stroke="white" stroke-opacity="0.08" stroke-linecap="round" stroke-linejoin="round"/>
</svg>
