<svg width="42" height="64" viewBox="0 0 42 64" fill="none" xmlns="http://www.w3.org/2000/svg">
<g clip-path="url(#clip0_2133_936)">
<path d="M20.7654 23.5733C22.3917 23.5733 23.71 22.2625 23.71 20.6456C23.71 19.0288 22.3917 17.718 20.7654 17.718C19.1392 17.718 17.8208 19.0288 17.8208 20.6456C17.8208 22.2625 19.1392 23.5733 20.7654 23.5733Z" fill="#381CB9"/>
<path fill-rule="evenodd" clip-rule="evenodd" d="M14.8921 11.8069C14.6289 11.5364 9.79226 6.63965 5.21029 6.63965C0.498622 6.63965 0.000438045 10.9182 0.000438045 13.283C0.000438045 14.8821 -0.158285 21.2899 7.44509 28.7088C7.44509 28.7088 0.90644 21.0976 0.90644 14.7899C0.90644 8.4938 6.2619 9.27354 11.8018 14.7899L9.42331 17.0863H17.3062V9.47557L14.8921 11.8069Z" fill="#381CB9"/>
<path fill-rule="evenodd" clip-rule="evenodd" d="M11.8754 26.484C11.6038 26.7456 6.67816 31.5544 6.67816 36.11C6.67816 40.794 10.982 41.2893 13.3606 41.2893C14.9689 41.2893 21.4139 41.4471 28.8763 33.8876C28.8763 33.8876 21.2205 40.388 14.8766 40.388C8.54401 40.388 9.32827 35.0639 14.8766 29.556L17.1864 31.9203V24.0857H9.531L11.8754 26.484Z" fill="#381CB9"/>
<path fill-rule="evenodd" clip-rule="evenodd" d="M26.6397 29.4849C26.9028 29.7549 31.7395 34.6521 36.3215 34.6521C41.0327 34.6521 41.5308 30.3731 41.5308 28.0088C41.5308 26.4097 41.6896 20.0019 34.0862 12.5825C34.0862 12.5825 40.6248 20.1946 40.6248 26.5014C40.6248 32.7971 35.2694 32.0178 29.7294 26.5014L32.108 24.2046H24.226V31.8158L26.6397 29.4849Z" fill="#381CB9"/>
<path fill-rule="evenodd" clip-rule="evenodd" d="M30.0942 14.8058C30.3657 14.5441 35.2914 9.73536 35.2914 5.17982C35.2914 0.495807 30.9875 0.000497622 28.6095 0.000497622C27.0011 0.000497622 20.5561 -0.157312 13.0937 7.40219C13.0937 7.40219 20.7495 0.901271 27.0934 0.901271C33.426 0.901271 32.6418 6.22537 27.0934 11.7338L24.7832 9.369V17.206H32.4395L30.0951 14.8058H30.0942Z" fill="#381CB9"/>
<path d="M41.9045 53.2773H0V53.8178H41.9045V53.2773Z" fill="#381CB9"/>
<path fill-rule="evenodd" clip-rule="evenodd" d="M2.75216 48.9076H1.13119V50.1449H2.75216V50.6733H1.13119V52.7555H0.305725V48.2954H2.75216V48.9076Z" fill="#381CB9"/>
<path fill-rule="evenodd" clip-rule="evenodd" d="M3.47931 48.3479H4.34504V50.1392H4.93499C5.01272 50.1392 5.09934 50.142 5.19439 50.1462C5.29362 50.1506 5.39239 50.1624 5.48983 50.1816C5.59367 50.2016 5.69552 50.2307 5.79417 50.2686C5.89867 50.309 5.99615 50.3653 6.08306 50.4357C6.22746 50.551 6.34463 50.6964 6.42627 50.8617C6.52084 51.0539 6.56757 51.2659 6.56251 51.4799C6.56513 51.6597 6.53203 51.8383 6.46513 52.0055C6.40967 52.1484 6.32592 52.2788 6.21884 52.389C6.12839 52.4789 6.02327 52.5529 5.90795 52.6078C5.79383 52.6629 5.67426 52.7059 5.55117 52.7363C5.4331 52.7662 5.31262 52.7857 5.19111 52.7945C5.07218 52.8035 4.96527 52.8078 4.87038 52.8075H3.47931V48.3479ZM4.79921 52.2019C4.92615 52.2011 5.05281 52.1902 5.178 52.1693C5.31124 52.1497 5.43491 52.089 5.5315 51.9957C5.59472 51.9309 5.64438 51.8543 5.67759 51.7704C5.71539 51.6738 5.73414 51.5709 5.73283 51.4673C5.73292 51.3708 5.71711 51.2748 5.68601 51.1834C5.65658 51.0938 5.60675 51.0122 5.5404 50.945C5.45823 50.8598 5.35191 50.8015 5.23559 50.7779C5.12672 50.7564 5.01602 50.7455 4.90503 50.7453H4.34738V52.2019H4.79921ZM6.84626 48.3479H7.75787V52.8075H6.84626V48.3479Z" fill="#381CB9"/>
<path fill-rule="evenodd" clip-rule="evenodd" d="M10.1622 49.6757C10.1622 49.7144 10.1584 49.7958 10.1514 49.9206C10.1444 50.0453 10.1327 50.1934 10.1182 50.3652C10.1036 50.5369 10.0849 50.7255 10.0629 50.9294C10.0409 51.1333 10.0161 51.3316 9.98518 51.5257C9.97535 51.5941 9.96224 51.6714 9.94492 51.7584C9.92643 51.848 9.90186 51.9362 9.8714 52.0224C9.8389 52.1129 9.79816 52.2004 9.74967 52.2835C9.69635 52.3713 9.62916 52.4499 9.55068 52.5163C9.42593 52.6266 9.27697 52.7063 9.1157 52.7491C8.96318 52.7899 8.80798 52.8201 8.65123 52.8394L8.42274 52.865L8.26776 52.3431L8.41525 52.3105C8.49713 52.2899 8.57728 52.263 8.65498 52.23C8.73057 52.1983 8.80121 52.1559 8.86474 52.1043C8.93107 52.0517 8.98846 51.9888 9.0347 51.9181C9.08225 51.8415 9.1194 51.759 9.1452 51.6728C9.17743 51.566 9.20199 51.4571 9.21871 51.3469C9.23838 51.224 9.25804 51.0816 9.27771 50.9182C9.29207 50.785 9.31298 50.569 9.34045 50.2702C9.36714 49.9718 9.38727 49.5719 9.40272 49.0747L9.42519 48.3467H12.1301V52.8063H11.2826V48.9528H10.1992L10.1622 49.6757Z" fill="#381CB9"/>
<path fill-rule="evenodd" clip-rule="evenodd" d="M12.8591 48.3479H13.7056V50.1392H14.3279C14.4061 50.1392 14.4922 50.142 14.5873 50.1462C14.6864 50.1505 14.785 50.1623 14.8823 50.1816C14.9864 50.2015 15.0886 50.2306 15.1876 50.2686C15.2918 50.3092 15.3891 50.3655 15.476 50.4357C15.6204 50.551 15.7375 50.6964 15.8192 50.8617C15.9138 51.0539 15.9605 51.2659 15.9554 51.4799C15.958 51.6597 15.925 51.8382 15.8585 52.0055C15.8023 52.1481 15.7187 52.2784 15.6122 52.389C15.5214 52.4789 15.416 52.5529 15.3004 52.6078C15.1865 52.6629 15.067 52.706 14.9441 52.7363C14.826 52.7661 14.7055 52.7856 14.584 52.7945C14.4656 52.8033 14.3583 52.8075 14.2633 52.8075H12.8586L12.8591 48.3479ZM14.1917 52.2019C14.3189 52.2011 14.4459 52.1902 14.5714 52.1693C14.7045 52.1497 14.828 52.089 14.9244 51.9957C14.9878 51.9311 15.0375 51.8544 15.0705 51.7704C15.1083 51.6738 15.1271 51.5709 15.1257 51.4673C15.1259 51.3708 15.1101 51.2748 15.0789 51.1834C15.0496 51.0937 14.9995 51.0121 14.9328 50.945C14.8509 50.8598 14.7447 50.8015 14.6285 50.7779C14.5195 50.7564 14.4086 50.7455 14.2975 50.7453H13.7075V52.2019H14.1917ZM16.5594 48.3479H17.516V52.8075H16.5594V48.3479Z" fill="#381CB9"/>
<path fill-rule="evenodd" clip-rule="evenodd" d="M22.3798 52.7905L22.1518 50.0253C22.1424 49.8857 22.1335 49.7362 22.1265 49.584C22.1195 49.4318 22.1157 49.3205 22.1157 49.2521C22.097 49.3253 22.072 49.4274 22.0408 49.5584C22.0096 49.6894 21.9704 49.8258 21.9233 49.9676L21.0243 52.7905H20.3253L19.5045 50.0905C19.4811 50.0175 19.4585 49.939 19.4366 49.8549C19.4148 49.7708 19.3946 49.6903 19.3762 49.6133C19.357 49.536 19.3406 49.4653 19.3266 49.4011C19.3125 49.3368 19.3003 49.2851 19.2905 49.246C19.2905 49.2851 19.2905 49.3391 19.2868 49.4038C19.283 49.4685 19.2812 49.5435 19.2765 49.6231C19.2718 49.7027 19.2657 49.7842 19.2587 49.868C19.2517 49.9518 19.2451 50.0281 19.2409 50.0965L19.0264 52.7909H18.2206L18.6701 48.3313H19.7615L20.5177 50.8572C20.5748 51.0466 20.6165 51.2031 20.6423 51.3278C20.668 51.4526 20.6891 51.5489 20.7036 51.6178C20.7125 51.5489 20.7331 51.4461 20.764 51.3087C20.7949 51.1714 20.8342 51.0248 20.8815 50.8702L21.6592 48.3313H22.7511L23.1861 52.7909L22.3798 52.7905Z" fill="#381CB9"/>
<path fill-rule="evenodd" clip-rule="evenodd" d="M29.1451 48.8341L28.9171 48.8857C28.857 48.8968 28.7979 48.9124 28.7401 48.9323C28.7035 48.9464 28.6699 48.967 28.6409 48.9933C28.6006 49.0302 28.5686 49.0753 28.5472 49.1255C28.5246 49.1767 28.5056 49.2294 28.4906 49.2833L28.3632 49.7488C28.3353 49.8593 28.2974 49.9672 28.2499 50.0709C28.2067 50.1552 28.1467 50.2299 28.0734 50.2902C27.9719 50.3735 27.854 50.4348 27.7274 50.4703V50.4838C27.7794 50.5011 27.8304 50.5215 27.88 50.5448C27.935 50.5716 27.9864 50.6051 28.0331 50.6444C28.1173 50.7094 28.1875 50.7904 28.2396 50.8828C28.2843 50.9694 28.3201 51.0604 28.3463 51.1542L28.5673 51.8692C28.5906 51.9414 28.6178 52.0123 28.6488 52.0815C28.6619 52.1178 28.6832 52.1506 28.7111 52.1775C28.7389 52.2043 28.7725 52.2245 28.8094 52.2365H29.2434V53.5474H28.469V52.8324C28.3093 52.8017 28.1601 52.7307 28.0359 52.6261C27.9681 52.5666 27.9146 52.4928 27.8791 52.4101C27.8394 52.311 27.808 52.2087 27.7854 52.1043L27.6075 51.3632C27.5856 51.2853 27.5595 51.2087 27.5293 51.1337C27.498 51.0526 27.4466 50.9808 27.3799 50.9247C27.3083 50.8663 27.2226 50.8274 27.1313 50.812C27.0541 50.7979 26.9758 50.7903 26.8972 50.7892H26.502V52.8454H25.6124V48.3853H26.502V50.1836H26.9703C27.0547 50.1833 27.139 50.1756 27.2222 50.1608C27.3134 50.1441 27.3982 50.1029 27.4675 50.0416C27.5304 49.9862 27.5771 49.9149 27.6028 49.8354C27.6262 49.7586 27.6496 49.6873 27.6665 49.6226L27.8013 49.0817C27.8201 49.0086 27.8482 48.9239 27.8828 48.8266C27.9202 48.7278 27.9826 48.6402 28.064 48.5724C28.127 48.5139 28.2021 48.4699 28.2841 48.4435C28.4027 48.4099 28.5239 48.3862 28.6465 48.3727L28.9878 48.3262L29.1442 48.8359L29.1451 48.8341Z" fill="#381CB9"/>
<path fill-rule="evenodd" clip-rule="evenodd" d="M33.2069 50.5842C33.2108 50.9036 33.1675 51.2219 33.0781 51.5287C33.0019 51.7913 32.8747 52.0364 32.7035 52.2503C32.5407 52.4492 32.3343 52.6085 32.1 52.7158C31.8434 52.8299 31.5645 52.8861 31.2834 52.8806C30.9832 52.8873 30.6851 52.8279 30.4107 52.7065C30.1689 52.5955 29.9558 52.4312 29.7875 52.2261C29.6139 52.0115 29.4864 51.7639 29.4129 51.4985C29.3294 51.1995 29.2882 50.8903 29.2907 50.58C29.2848 50.2488 29.3323 49.9188 29.4312 49.6024C29.5149 49.3387 29.6509 49.0944 29.831 48.8837C29.9995 48.6905 30.2103 48.5382 30.4472 48.4386C30.7008 48.3351 30.9728 48.2837 31.2469 48.2873C31.5442 48.2808 31.8391 48.3414 32.1094 48.4647C32.3491 48.5775 32.5592 48.744 32.7232 48.9512C32.8913 49.1678 33.0145 49.4154 33.0856 49.6797C33.1674 49.9743 33.2082 50.2786 33.2069 50.5842ZM32.2583 50.6308C32.2602 50.3993 32.2446 50.1681 32.2114 49.939C32.1862 49.7554 32.1312 49.5771 32.0485 49.4111C31.979 49.273 31.8715 49.1573 31.7385 49.0773C31.5871 48.9951 31.4161 48.9553 31.2436 48.9619C30.8734 48.9619 30.6105 49.0984 30.4547 49.3715C30.2989 49.6446 30.2209 50.0341 30.2206 50.54C30.2206 51.0781 30.3005 51.4929 30.4603 51.7843C30.6201 52.0757 30.8873 52.2213 31.2619 52.221C31.5906 52.221 31.8389 52.0968 32.0068 51.8485C32.1748 51.6003 32.2586 51.194 32.2583 50.6298V50.6308Z" fill="#381CB9"/>
<path fill-rule="evenodd" clip-rule="evenodd" d="M36.667 49.6821C36.6703 49.8852 36.6317 50.0869 36.5537 50.2747C36.4832 50.4435 36.3783 50.596 36.2456 50.7225C36.1131 50.8471 35.9565 50.9437 35.7854 51.0065C35.6028 51.0739 35.4094 51.1077 35.2146 51.1061H34.5123V52.8075H33.7163V48.3479H34.9093C35.0741 48.3479 35.2141 48.3521 35.3307 48.3605C35.4331 48.3675 35.5351 48.3804 35.636 48.3991C35.7135 48.414 35.7895 48.4356 35.8631 48.4638C35.9285 48.49 35.9912 48.5225 36.0504 48.5606C36.2432 48.6707 36.4014 48.8319 36.5073 49.0262C36.6156 49.2278 36.6705 49.4535 36.667 49.6821ZM35.8439 49.7286C35.8439 49.4803 35.7833 49.2941 35.6622 49.17C35.5921 49.0963 35.5055 49.04 35.4094 49.0057C35.2904 48.9662 35.1654 48.9476 35.04 48.9507H34.5132V50.5172H35.04C35.3167 50.5172 35.5194 50.4525 35.6486 50.3235C35.7779 50.1946 35.8439 49.9926 35.8439 49.7272V49.7286Z" fill="#381CB9"/>
<path fill-rule="evenodd" clip-rule="evenodd" d="M37.1395 48.3479H37.9617V50.1392H38.5273C38.6059 50.1392 38.6935 50.142 38.7904 50.1462C38.8909 50.1505 38.9909 50.1624 39.0896 50.1816C39.195 50.2015 39.2984 50.2307 39.3986 50.2686C39.5043 50.3088 39.6031 50.3652 39.6912 50.4357C39.8375 50.5506 39.9566 50.696 40.0401 50.8617C40.1365 51.0534 40.1847 51.2656 40.1805 51.4799C40.1829 51.6598 40.1494 51.8385 40.0817 52.0055C40.0248 52.1486 39.9398 52.279 39.8317 52.389C39.7397 52.4791 39.633 52.5531 39.5161 52.6078C39.4003 52.663 39.279 52.706 39.1542 52.7363C39.0344 52.7662 38.9122 52.7857 38.789 52.7945C38.6687 52.8033 38.56 52.8075 38.4641 52.8075H37.1418L37.1395 48.3479ZM38.3896 52.2019C38.5184 52.2011 38.6469 52.1902 38.774 52.1693C38.9087 52.1497 39.0341 52.089 39.1327 51.9957C39.1963 51.931 39.2465 51.8544 39.2802 51.7704C39.3185 51.674 39.3374 51.571 39.3359 51.4673C39.3362 51.3707 39.3204 51.2748 39.2891 51.1834C39.2588 51.0936 39.208 51.012 39.1406 50.945C39.0569 50.8596 38.9492 50.8013 38.8316 50.7779C38.7211 50.7565 38.6089 50.7456 38.4964 50.7453H37.9617V52.2019H38.3896ZM40.5968 48.3479H41.5196V52.8075H40.5968V48.3479Z" fill="#381CB9"/>
<path fill-rule="evenodd" clip-rule="evenodd" d="M2.32004 46.7919H2.07516C2.05056 46.7929 2.02639 46.7853 2.0068 46.7705C1.9893 46.7564 1.97588 46.7379 1.96794 46.7169L1.74928 46.156H0.700474L0.482286 46.7169C0.474916 46.7376 0.461754 46.7556 0.44436 46.7691C0.424651 46.7848 0.399862 46.7929 0.374597 46.7919H0.131592L1.06803 44.468H1.38735L2.32004 46.7919ZM0.788967 45.9293H1.66079L1.2937 44.9833C1.282 44.9554 1.27029 44.9233 1.25859 44.8865C1.24688 44.8497 1.23564 44.8102 1.22347 44.7678C1.2127 44.8102 1.20147 44.8502 1.19023 44.8874C1.17899 44.9247 1.16729 44.9573 1.15511 44.9857L0.788967 45.9293Z" fill="#381CB9"/>
<path fill-rule="evenodd" clip-rule="evenodd" d="M3.10285 45.4859H3.34632C3.38894 45.487 3.43134 45.4794 3.47087 45.4635C3.51169 45.4426 3.54674 45.4121 3.57294 45.3746L4.18443 44.5572C4.2 44.5322 4.22018 44.5104 4.24389 44.4929C4.26795 44.476 4.29683 44.4672 4.3263 44.4678H4.59225L3.88618 45.4226C3.83679 45.4954 3.76424 45.5497 3.68016 45.5767C3.73355 45.5898 3.7833 45.6146 3.82578 45.6493C3.87043 45.6891 3.90893 45.7352 3.94002 45.7861L4.65405 46.7917H4.37031C4.34134 46.7923 4.31298 46.7833 4.28978 46.7661C4.2644 46.7457 4.24312 46.7207 4.22704 46.6925L3.60852 45.8415C3.58571 45.8044 3.5534 45.7738 3.51488 45.7531C3.47306 45.7342 3.4273 45.7256 3.38144 45.728H3.10051V46.7917H2.7854V44.4678H3.10051L3.10285 45.4859Z" fill="#381CB9"/>
<path fill-rule="evenodd" clip-rule="evenodd" d="M5.13824 46.7919V44.468H5.45335V46.5451H6.6239V44.468H6.94182V46.5451H7.29907V47.2634C7.29959 47.2762 7.2973 47.2888 7.29237 47.3006C7.28743 47.3123 7.27997 47.3228 7.27051 47.3314C7.2507 47.3492 7.22463 47.3586 7.19793 47.3575H7.01064V46.7919H5.13824Z" fill="#381CB9"/>
<path fill-rule="evenodd" clip-rule="evenodd" d="M9.36201 44.5667C9.37811 44.5412 9.398 44.5183 9.42101 44.4987C9.44397 44.4788 9.47343 44.4679 9.50389 44.468H9.73799V46.7919H9.42195V45.1407C9.42195 45.0941 9.42194 45.0476 9.42475 44.9978C9.42756 44.948 9.43178 44.894 9.43927 44.8376C9.42222 44.8839 9.40236 44.9292 9.37981 44.9731C9.36096 45.0107 9.34001 45.0472 9.31707 45.0825L8.22144 46.6927C8.20524 46.7183 8.18536 46.7413 8.16244 46.7611C8.13948 46.7811 8.11003 46.792 8.07957 46.7919H7.84546V44.468H8.16197V46.1201C8.16197 46.1667 8.16198 46.2132 8.1587 46.2654C8.15542 46.3175 8.1512 46.3697 8.14418 46.4269C8.16106 46.3792 8.18092 46.3325 8.20365 46.2873C8.22472 46.2458 8.24578 46.2081 8.26639 46.1746L9.36201 44.5667Z" fill="#381CB9"/>
<path fill-rule="evenodd" clip-rule="evenodd" d="M12.6582 45.6308C12.6601 45.794 12.632 45.9562 12.5754 46.1094C12.5237 46.2491 12.4441 46.3769 12.3412 46.485C12.2383 46.5909 12.1142 46.6741 11.977 46.7294C11.6744 46.845 11.3394 46.845 11.0368 46.7294C10.8997 46.6741 10.7758 46.5909 10.673 46.485C10.5702 46.3769 10.4905 46.2491 10.4389 46.1094C10.3284 45.7995 10.3284 45.4612 10.4389 45.1513C10.4907 45.0116 10.5704 44.8837 10.673 44.7752C10.7756 44.6689 10.8995 44.5854 11.0368 44.5299C11.3391 44.4126 11.6747 44.4126 11.977 44.5299C12.1144 44.5853 12.2385 44.6689 12.3412 44.7752C12.4439 44.8837 12.5235 45.0116 12.5754 45.1513C12.632 45.3048 12.6601 45.4673 12.6582 45.6308ZM12.3338 45.6308C12.3356 45.5003 12.3158 45.3704 12.2752 45.2463C12.2402 45.1399 12.1834 45.0418 12.1085 44.9582C12.0361 44.8795 11.947 44.8178 11.8477 44.7775C11.6278 44.6937 11.3845 44.6937 11.1646 44.7775C11.0651 44.8179 10.9758 44.8796 10.9029 44.9582C10.8277 45.0417 10.7706 45.1398 10.7353 45.2463C10.6572 45.4963 10.6572 45.7639 10.7353 46.0139C10.7707 46.1201 10.8278 46.2179 10.9029 46.3012C10.9755 46.3797 11.065 46.4411 11.1646 46.4809C11.3846 46.564 11.6277 46.564 11.8477 46.4809C11.9472 46.4412 12.0363 46.3798 12.1085 46.3012C12.1833 46.2178 12.2401 46.12 12.2752 46.0139C12.3167 45.8905 12.3372 45.761 12.3361 45.6308H12.3338Z" fill="#381CB9"/>
<path fill-rule="evenodd" clip-rule="evenodd" d="M15.166 46.7919H14.8495V45.7342H13.5886V46.7919H13.2725V44.468H13.5886V45.5043H14.8495V44.468H15.166V46.7919Z" fill="#381CB9"/>
<path fill-rule="evenodd" clip-rule="evenodd" d="M17.3662 44.468V44.7241H16.242V45.4959H17.1522V45.7426H16.242V46.5354H17.3676L17.3662 46.7919H15.9255V44.468H17.3662Z" fill="#381CB9"/>
<path fill-rule="evenodd" clip-rule="evenodd" d="M18.2876 45.9223V46.7918H17.973V44.468H18.6631C18.7934 44.4657 18.9233 44.4829 19.0485 44.5192C19.1482 44.548 19.2407 44.5973 19.32 44.664C19.3912 44.7257 19.4463 44.8036 19.4806 44.8911C19.5173 44.9858 19.5355 45.0867 19.534 45.1881C19.5351 45.2898 19.5157 45.3906 19.4769 45.4847C19.4396 45.5738 19.3824 45.6534 19.3097 45.7174C19.23 45.7857 19.1374 45.8373 19.0372 45.8692C18.9161 45.9071 18.7896 45.9253 18.6626 45.9232L18.2876 45.9223ZM18.2876 45.6727H18.6622C18.7432 45.6743 18.824 45.6621 18.901 45.6369C18.9653 45.6158 19.0247 45.5821 19.0756 45.5377C19.1226 45.4954 19.1591 45.4428 19.1824 45.3841C19.2065 45.3216 19.2186 45.2551 19.2179 45.1881C19.2216 45.1238 19.2112 45.0594 19.1874 44.9995C19.1637 44.9395 19.1271 44.8854 19.0803 44.8409C18.9885 44.7577 18.849 44.7161 18.6617 44.7161H18.2871L18.2876 45.6727Z" fill="#381CB9"/>
<path fill-rule="evenodd" clip-rule="evenodd" d="M21.6733 44.468V46.7919H21.3572V44.7161H20.5837C20.5688 45.0144 20.5485 45.2734 20.5229 45.4931C20.5021 45.6821 20.4709 45.8698 20.4292 46.0554C20.4013 46.1859 20.3599 46.3132 20.3056 46.4353C20.2682 46.5206 20.217 46.5992 20.1539 46.668C20.1052 46.7202 20.0444 46.7598 19.9769 46.7835C19.912 46.804 19.8442 46.8144 19.7761 46.8142C19.7305 46.8156 19.6849 46.8104 19.6408 46.7989C19.6094 46.7891 19.5939 46.7728 19.5939 46.7523V46.5531H19.7082C19.7523 46.553 19.796 46.5444 19.8369 46.5279C19.8862 46.5058 19.9284 46.4707 19.9591 46.4264C20.0068 46.3599 20.0442 46.2866 20.0701 46.209C20.1117 46.0877 20.143 45.9631 20.1638 45.8366C20.1923 45.6816 20.2167 45.4931 20.2373 45.2696C20.2579 45.0462 20.2738 44.7799 20.2841 44.4694L21.6733 44.468Z" fill="#381CB9"/>
<path d="M22.7493 44.468H22.4327V46.7914H22.7493V44.468Z" fill="#381CB9"/>
<path fill-rule="evenodd" clip-rule="evenodd" d="M23.8243 45.4859H24.0673C24.1102 45.487 24.1529 45.4794 24.1928 45.4635C24.2335 45.4425 24.2685 45.412 24.2949 45.3746L24.9064 44.5572C24.9216 44.532 24.9418 44.5101 24.9658 44.4929C24.9897 44.4761 25.0184 44.4673 25.0478 44.4678H25.3142L24.6081 45.4226C24.5825 45.4595 24.5508 45.4919 24.5145 45.5185C24.4801 45.5439 24.4418 45.5635 24.4012 45.5767C24.4544 45.59 24.5041 45.6148 24.5468 45.6493C24.5913 45.689 24.6295 45.7351 24.6601 45.7861L25.3746 46.7917H25.0936C25.0647 46.7924 25.0363 46.7834 25.0131 46.766C24.9874 46.7458 24.966 46.7209 24.9499 46.6925L24.3314 45.8415C24.3086 45.8043 24.2763 45.7738 24.2377 45.7531C24.1958 45.7341 24.1499 45.7254 24.1038 45.728H23.8229V46.7917H23.5087V44.4678H23.8229L23.8243 45.4859Z" fill="#381CB9"/>
<path fill-rule="evenodd" clip-rule="evenodd" d="M27.1725 45.4859H27.4155C27.4583 45.487 27.5008 45.4794 27.5405 45.4635C27.5812 45.4426 27.6161 45.4121 27.6421 45.3746L28.2541 44.5572C28.2695 44.5321 28.2897 44.5103 28.3136 44.4929C28.3376 44.476 28.3665 44.4672 28.396 44.4678H28.6619L27.9558 45.4226C27.9062 45.495 27.834 45.5491 27.7503 45.5767C27.8034 45.5899 27.8528 45.6147 27.895 45.6493C27.9398 45.6889 27.9783 45.7351 28.0092 45.7861L28.5477 46.5449H28.8782V47.2632C28.8787 47.2759 28.8765 47.2885 28.8716 47.3002C28.8668 47.312 28.8594 47.3225 28.8501 47.3312C28.8303 47.3489 28.8042 47.3583 28.7776 47.3573H28.5903V46.7917H28.4404C28.4113 46.7923 28.3829 46.7833 28.3594 46.7661C28.3343 46.7455 28.3132 46.7206 28.2972 46.6925L27.6787 45.8415C27.6558 45.8044 27.6235 45.7738 27.585 45.7531C27.543 45.7342 27.4971 45.7256 27.4511 45.728H27.1702V46.7917H26.8555V44.4678H27.1702L27.1725 45.4859Z" fill="#381CB9"/>
<path fill-rule="evenodd" clip-rule="evenodd" d="M31.4023 45.6308C31.4041 45.7941 31.3758 45.9562 31.319 46.1094C31.2674 46.2491 31.1877 46.3769 31.0849 46.485C30.982 46.5909 30.8579 46.6741 30.7206 46.7294C30.418 46.845 30.0831 46.845 29.7804 46.7294C29.6433 46.6743 29.5193 46.591 29.4166 46.485C29.3137 46.377 29.234 46.2492 29.1825 46.1094C29.072 45.7995 29.072 45.4612 29.1825 45.1513C29.2342 45.0115 29.3138 44.8836 29.4166 44.7752C29.5191 44.6688 29.6431 44.5852 29.7804 44.5299C30.0827 44.4126 30.4183 44.4126 30.7206 44.5299C30.858 44.5853 30.9821 44.6689 31.0849 44.7752C31.1875 44.8837 31.2671 45.0116 31.319 45.1513C31.3758 45.3048 31.4041 45.4673 31.4023 45.6308ZM31.0774 45.6308C31.0792 45.4997 31.0591 45.3691 31.0179 45.2444C30.9827 45.1381 30.926 45.0401 30.8513 44.9563C30.7788 44.8777 30.6897 44.816 30.5905 44.7757C30.3706 44.6919 30.1272 44.6919 29.9073 44.7757C29.8077 44.8161 29.7182 44.8777 29.6451 44.9563C29.5701 45.0398 29.5133 45.1379 29.4784 45.2444C29.3998 45.4944 29.3998 45.7622 29.4784 46.0121C29.5134 46.1183 29.5702 46.2161 29.6451 46.2993C29.718 46.3779 29.8076 46.4393 29.9073 46.479C30.1274 46.5622 30.3704 46.5622 30.5905 46.479C30.6899 46.4394 30.779 46.378 30.8513 46.2993C30.9259 46.2158 30.9826 46.1181 31.0179 46.0121C31.0587 45.8891 31.0788 45.7603 31.0774 45.6308Z" fill="#381CB9"/>
<path fill-rule="evenodd" clip-rule="evenodd" d="M33.5871 44.7161H32.4957V45.4652H33.0552V45.7035H32.4957V46.7919H32.1792V45.7035H31.7812V45.4652H32.1792V44.468H33.5871V44.7161Z" fill="#381CB9"/>
<path fill-rule="evenodd" clip-rule="evenodd" d="M35.7001 46.7919H35.4553C35.4307 46.7929 35.4065 46.7853 35.3869 46.7705C35.3693 46.7564 35.3557 46.7379 35.3476 46.7169L35.1294 46.156H34.0801L33.8619 46.7169C33.8546 46.7374 33.8416 46.7555 33.8245 46.7691C33.8045 46.7847 33.7796 46.7928 33.7542 46.7919H33.5112L34.4477 44.468H34.767L35.7001 46.7919ZM34.1686 45.9293H35.0446L34.6776 44.9833C34.664 44.9518 34.6523 44.9194 34.6424 44.8865C34.6309 44.8499 34.6192 44.8103 34.6073 44.7678C34.5966 44.8102 34.5853 44.8502 34.5741 44.8874C34.5628 44.9247 34.5507 44.9573 34.539 44.9857L34.1686 45.9293Z" fill="#381CB9"/>
<path fill-rule="evenodd" clip-rule="evenodd" d="M37.3562 46.0358L37.3918 46.121C37.403 46.0917 37.4143 46.0628 37.4264 46.0344C37.4377 46.0062 37.4507 45.9787 37.4653 45.952L38.2575 44.5238C38.2658 44.5036 38.2813 44.487 38.3011 44.4773C38.3225 44.4714 38.3448 44.4687 38.3671 44.4694H38.6012V46.7932H38.3221V45.0857C38.3221 45.0624 38.3221 45.0392 38.3221 45.0126C38.3221 44.9861 38.3221 44.96 38.3273 44.933L37.5266 46.3859C37.517 46.4081 37.501 46.4269 37.4805 46.4399C37.4601 46.4529 37.4362 46.4596 37.4119 46.459H37.3651C37.3409 46.4595 37.3171 46.4528 37.2968 46.4398C37.2764 46.4268 37.2604 46.408 37.2509 46.3859L36.4324 44.9284C36.4357 44.9563 36.4385 44.9838 36.4399 45.0112C36.4413 45.0387 36.4399 45.0624 36.4399 45.0857V46.7932H36.1683V44.4694H36.4024C36.4246 44.4686 36.4467 44.4712 36.468 44.4773C36.4877 44.4872 36.5033 44.5037 36.512 44.5238L37.3192 45.9539C37.3319 45.9777 37.344 46.0047 37.3562 46.0358Z" fill="#381CB9"/>
<path fill-rule="evenodd" clip-rule="evenodd" d="M39.6753 44.4679V45.4683H40.1299C40.2544 45.4659 40.3785 45.4815 40.4984 45.5148C40.5916 45.5402 40.6786 45.5842 40.7541 45.6443C40.8189 45.6977 40.8698 45.7659 40.9025 45.843C40.9349 45.9229 40.9508 46.0084 40.9493 46.0944C40.9509 46.1935 40.9322 46.2918 40.8945 46.3835C40.8594 46.4682 40.8047 46.5435 40.7349 46.6032C40.6594 46.6671 40.5714 46.7146 40.4764 46.7429C40.3633 46.7765 40.2456 46.7922 40.1276 46.7894H39.3593V44.4656L39.6753 44.4679ZM39.6753 45.7183V46.5418H40.1285C40.2077 46.5435 40.2866 46.5331 40.3626 46.511C40.4208 46.494 40.4747 46.465 40.5209 46.4259C40.5611 46.3901 40.5918 46.345 40.6103 46.2946C40.649 46.1838 40.649 46.0632 40.6103 45.9524C40.5919 45.9029 40.5611 45.8589 40.5209 45.8244C40.4749 45.7865 40.421 45.7593 40.3631 45.7448C40.2866 45.7255 40.2079 45.7166 40.129 45.7183H39.6753ZM41.6957 46.7918H41.3791V44.4679H41.6957V46.7918Z" fill="#381CB9"/>
<path fill-rule="evenodd" clip-rule="evenodd" d="M2.31345 63.434H2.06857C2.044 63.4353 2.01975 63.4279 2.00021 63.413C1.9829 63.399 1.96952 63.3807 1.96135 63.36L1.74222 62.7986H0.693882L0.475694 63.36C0.468046 63.3803 0.454928 63.3982 0.437769 63.4116C0.417895 63.427 0.393183 63.435 0.368005 63.434H0.125L1.05909 61.1106H1.37982L2.31345 63.434ZM0.781907 62.5718H1.65466L1.28618 61.6264C1.274 61.598 1.26277 61.5659 1.25106 61.5286C1.23936 61.4914 1.22812 61.4528 1.21595 61.4109C1.20518 61.4528 1.19394 61.4923 1.1827 61.53C1.17146 61.5677 1.15929 61.6003 1.14758 61.6278L0.781907 62.5718Z" fill="#381CB9"/>
<path fill-rule="evenodd" clip-rule="evenodd" d="M2.76996 62.1292H3.01344C3.0561 62.1304 3.09854 62.1226 3.13798 62.1064C3.17877 62.0852 3.21379 62.0545 3.24005 62.017L3.85154 61.2C3.86693 61.1749 3.88714 61.1531 3.91101 61.1358C3.93503 61.1188 3.96394 61.11 3.99341 61.1106H4.25936L3.55282 62.0654C3.52721 62.1023 3.49556 62.1348 3.45918 62.1613C3.42467 62.1864 3.38644 62.206 3.34587 62.2195C3.39915 62.2325 3.44878 62.2573 3.49102 62.2921C3.53594 62.3315 3.57448 62.3775 3.60526 62.4285L4.31976 63.434H4.03602C4.00696 63.4348 3.97845 63.426 3.95502 63.4089C3.92966 63.3885 3.90837 63.3635 3.89228 63.3353L3.27423 62.4839C3.25115 62.4469 3.21891 62.4165 3.18059 62.3955C3.13847 62.377 3.09266 62.3684 3.04668 62.3703H2.76575V63.434H2.45673V61.1106H2.77137L2.76996 62.1292Z" fill="#381CB9"/>
<path fill-rule="evenodd" clip-rule="evenodd" d="M4.47894 63.434V61.1106H4.7978V63.1877H5.96553V61.1106H6.28345V63.1877H6.6407V63.906C6.64117 63.9188 6.63886 63.9315 6.63393 63.9433C6.629 63.9551 6.62157 63.9658 6.61214 63.9744C6.59221 63.992 6.56618 64.0012 6.53956 64.0001H6.35228V63.434H4.47894Z" fill="#381CB9"/>
<path fill-rule="evenodd" clip-rule="evenodd" d="M8.37686 61.2115C8.39282 61.1857 8.41272 61.1627 8.43586 61.143C8.45884 61.1229 8.48855 61.1119 8.5192 61.1123H8.75331V63.4357H8.43726V61.7854C8.43726 61.7398 8.4382 61.6919 8.44007 61.6416C8.44007 61.5918 8.44709 61.5383 8.45459 61.4819C8.4374 61.5281 8.41771 61.5733 8.39559 61.6174C8.37669 61.6551 8.35559 61.6916 8.33238 61.7268L7.23675 63.337C7.22078 63.3626 7.20087 63.3855 7.17776 63.405C7.15503 63.4253 7.12543 63.4362 7.09489 63.4357H6.86078V61.1123H7.17729V62.7644C7.17729 62.811 7.17729 62.8575 7.17401 62.9097C7.17074 62.9618 7.16699 63.0135 7.1595 63.0712C7.17638 63.0235 7.19624 62.9768 7.21896 62.9315C7.24003 62.8897 7.2611 62.8524 7.28171 62.8194L8.37686 61.2115Z" fill="#381CB9"/>
<path fill-rule="evenodd" clip-rule="evenodd" d="M11.3467 62.2731C11.3487 62.4364 11.3206 62.5988 11.2639 62.7521C11.2123 62.8917 11.1327 63.0194 11.0298 63.1273C10.9271 63.2334 10.8029 63.3167 10.6655 63.3717C10.5157 63.431 10.3557 63.4605 10.1945 63.4587C10.0342 63.4605 9.87507 63.4309 9.72625 63.3717C9.5889 63.3168 9.46487 63.2335 9.36245 63.1273C9.25937 63.0195 9.17968 62.8918 9.12834 62.7521C9.0172 62.4425 9.0172 62.1041 9.12834 61.7945C9.1799 61.6545 9.25954 61.5264 9.36245 61.4179C9.46483 61.3114 9.58885 61.2278 9.72625 61.1726C9.87491 61.1127 10.0341 61.083 10.1945 61.0851C10.3558 61.0829 10.5159 61.1127 10.6655 61.1726C10.803 61.2279 10.9271 61.3115 11.0298 61.4179C11.1325 61.5265 11.2121 61.6546 11.2639 61.7945C11.3205 61.9477 11.3486 62.1099 11.3467 62.2731ZM11.0223 62.2731C11.0243 62.1427 11.0046 62.0129 10.9637 61.889C10.9287 61.7827 10.872 61.6848 10.7971 61.6013C10.7249 61.5224 10.6357 61.4607 10.5363 61.4207C10.3165 61.3363 10.0729 61.3363 9.85314 61.4207C9.75338 61.4607 9.66394 61.5224 9.5914 61.6013C9.51606 61.6846 9.45897 61.7826 9.42378 61.889C9.34576 62.139 9.34576 62.4067 9.42378 62.6566C9.45908 62.7629 9.51616 62.8607 9.5914 62.9439C9.66408 63.0225 9.7535 63.0841 9.85314 63.124C10.0733 63.2066 10.3161 63.2066 10.5363 63.124C10.6356 63.0841 10.7247 63.0225 10.7971 62.9439C10.8719 62.8605 10.9286 62.7627 10.9637 62.6566C11.0046 62.5329 11.0244 62.4033 11.0223 62.2731Z" fill="#381CB9"/>
<path fill-rule="evenodd" clip-rule="evenodd" d="M13.5286 63.434H13.2121V62.3768H11.9512V63.434H11.6347V61.1106H11.9512V62.1468H13.2121V61.1106H13.5286V63.434Z" fill="#381CB9"/>
<path fill-rule="evenodd" clip-rule="evenodd" d="M15.402 61.1106V61.3666H14.2783V62.1385H15.1885V62.3847H14.2783V63.178H15.4039L15.4025 63.434H13.9622V61.1106H15.4025H15.402Z" fill="#381CB9"/>
<path fill-rule="evenodd" clip-rule="evenodd" d="M15.998 62.5649V63.434H15.6829V61.1106H16.3731C16.5034 61.108 16.6334 61.1253 16.7584 61.1618C16.8583 61.1905 16.9509 61.24 17.03 61.3071C17.1015 61.3686 17.1568 61.4466 17.191 61.5342C17.2274 61.6289 17.2453 61.7295 17.244 61.8308C17.2451 61.9324 17.2257 62.0333 17.1868 62.1273C17.1499 62.2166 17.0927 62.2963 17.0197 62.3601C16.9402 62.4286 16.8475 62.4803 16.7472 62.5118C16.6262 62.5503 16.4996 62.5687 16.3726 62.5663L15.998 62.5649ZM15.998 62.3154H16.3726C16.4536 62.3168 16.5343 62.3049 16.6114 62.28C16.6759 62.2589 16.7354 62.2248 16.786 62.1799C16.8328 62.1377 16.8693 62.0855 16.8928 62.0272C16.9173 61.9646 16.9295 61.8979 16.9288 61.8308C16.9324 61.7664 16.9219 61.702 16.8981 61.6421C16.8742 61.5821 16.8376 61.528 16.7907 61.4835C16.6971 61.4006 16.5594 61.3587 16.3726 61.3587H15.998V62.3154Z" fill="#381CB9"/>
<path fill-rule="evenodd" clip-rule="evenodd" d="M19.372 63.434H19.0555V62.3768H17.7951V63.434H17.4781V61.1106H17.7951V62.1468H19.0555V61.1106H19.372V63.434Z" fill="#381CB9"/>
<path fill-rule="evenodd" clip-rule="evenodd" d="M21.965 62.273C21.9672 62.4363 21.9391 62.5987 21.8821 62.752C21.8309 62.8917 21.7512 63.0195 21.648 63.1272C21.5454 63.2334 21.4212 63.3167 21.2837 63.3716C20.9812 63.4876 20.6461 63.4876 20.3436 63.3716C20.2063 63.3166 20.0823 63.2333 19.9798 63.1272C19.8767 63.0194 19.797 62.8917 19.7456 62.752C19.6345 62.4423 19.6345 62.104 19.7456 61.7944C19.7972 61.6544 19.8768 61.5262 19.9798 61.4178C20.0822 61.3114 20.2062 61.2278 20.3436 61.1725C20.646 61.0558 20.9813 61.0558 21.2837 61.1725C21.4213 61.2275 21.5455 61.3112 21.648 61.4178C21.7509 61.5263 21.8306 61.6544 21.8821 61.7944C21.939 61.9475 21.9671 62.1097 21.965 62.273ZM21.6405 62.273C21.6426 62.1426 21.6228 62.0128 21.582 61.8889C21.5469 61.7826 21.4902 61.6847 21.4153 61.6012C21.3432 61.5222 21.254 61.4604 21.1545 61.4206C20.9347 61.3362 20.6912 61.3362 20.4714 61.4206C20.3717 61.4607 20.2823 61.5224 20.2097 61.6012C20.1345 61.6846 20.0774 61.7826 20.042 61.8889C19.964 62.1389 19.964 62.4065 20.042 62.6565C20.0775 62.7627 20.1346 62.8605 20.2097 62.9438C20.2824 63.0223 20.3718 63.0838 20.4714 63.1239C20.6915 63.2065 20.9344 63.2065 21.1545 63.1239C21.2539 63.0841 21.3431 63.0225 21.4153 62.9438C21.4901 62.8604 21.5468 62.7626 21.582 62.6565C21.6229 62.5328 21.6427 62.4032 21.6405 62.273Z" fill="#381CB9"/>
<path fill-rule="evenodd" clip-rule="evenodd" d="M23.6937 61.1106V61.3666H22.5699V62.1385H23.4797V62.3847H22.5699V63.178H23.6951L23.6937 63.434H22.2534V61.1106H23.6937Z" fill="#381CB9"/>
<path fill-rule="evenodd" clip-rule="evenodd" d="M26.804 62.273C26.806 62.4363 26.7779 62.5986 26.7212 62.752C26.6698 62.8917 26.5901 63.0194 26.4871 63.1272C26.3845 63.2334 26.2603 63.3167 26.1228 63.3716C25.8203 63.4876 25.4851 63.4876 25.1826 63.3716C25.0453 63.3167 24.9212 63.2334 24.8188 63.1272C24.7159 63.0193 24.6362 62.8916 24.5847 62.752C24.4736 62.4423 24.4736 62.104 24.5847 61.7944C24.6364 61.6545 24.7161 61.5264 24.8188 61.4178C24.9212 61.3113 25.0452 61.2277 25.1826 61.1725C25.485 61.0558 25.8204 61.0558 26.1228 61.1725C26.2603 61.2276 26.3845 61.3113 26.4871 61.4178C26.59 61.5263 26.6696 61.6544 26.7212 61.7944C26.7778 61.9476 26.8059 62.1098 26.804 62.273ZM26.4796 62.273C26.4814 62.1426 26.4616 62.0129 26.421 61.8889C26.386 61.7826 26.3292 61.6847 26.2544 61.6012C26.1822 61.5223 26.093 61.4606 25.9936 61.4206C25.7738 61.3362 25.5302 61.3362 25.3104 61.4206C25.2107 61.4605 25.1212 61.5223 25.0487 61.6012C24.9733 61.6844 24.9164 61.7824 24.8815 61.8889C24.8029 62.1388 24.8029 62.4066 24.8815 62.6565C24.9165 62.7628 24.9734 62.8607 25.0487 62.9438C25.1214 63.0224 25.2108 63.084 25.3104 63.1239C25.5306 63.2065 25.7734 63.2065 25.9936 63.1239C26.0929 63.0839 26.182 63.0224 26.2544 62.9438C26.3292 62.8604 26.3859 62.7626 26.421 62.6565C26.4624 62.5329 26.4827 62.4032 26.481 62.273H26.4796Z" fill="#381CB9"/>
<path fill-rule="evenodd" clip-rule="evenodd" d="M28.6043 61.3587H27.409V62.111H27.8636C27.9882 62.1085 28.1125 62.1242 28.2326 62.1575C28.3258 62.1827 28.4127 62.2269 28.4877 62.2874C28.5529 62.3403 28.6039 62.4085 28.6362 62.4857C28.6683 62.5656 28.6842 62.651 28.683 62.7371C28.6852 62.8363 28.6672 62.935 28.6301 63.0271C28.5948 63.1119 28.5402 63.1873 28.4704 63.2473C28.3946 63.3106 28.3067 63.3581 28.212 63.3869C28.0986 63.4201 27.9808 63.4358 27.8627 63.4335H27.0948V61.1101H28.6048L28.6043 61.3587ZM27.409 62.3605V63.1844H27.8622C27.9413 63.1861 28.0203 63.1757 28.0963 63.1537C28.1547 63.1368 28.2086 63.1076 28.2546 63.0681C28.2954 63.0327 28.3263 62.9875 28.3445 62.9368C28.3639 62.8824 28.3736 62.8251 28.373 62.7673C28.3738 62.7086 28.3642 62.6501 28.3445 62.5946C28.3259 62.5452 28.2949 62.5013 28.2546 62.4671C28.2088 62.4291 28.155 62.4019 28.0972 62.3875C28.0216 62.368 27.9436 62.3589 27.8655 62.3605H27.409Z" fill="#381CB9"/>
<path fill-rule="evenodd" clip-rule="evenodd" d="M28.9531 63.434V61.1106H29.2696V63.1877H30.2482V61.1106H30.5647V63.1877H31.548V61.1106H31.8659V63.1877H32.2232V63.906C32.2235 63.9188 32.2212 63.9315 32.2163 63.9433C32.2113 63.9551 32.2039 63.9657 32.1946 63.9744C32.1746 63.9919 32.1486 64.001 32.122 64.0001H31.9347V63.434H28.9531Z" fill="#381CB9"/>
<path fill-rule="evenodd" clip-rule="evenodd" d="M33.8863 61.1106V61.3666H32.7626V62.1385H33.6732V62.3847H32.7626V63.178H33.8882L33.8863 63.434H32.446V61.1106H33.8863Z" fill="#381CB9"/>
<path fill-rule="evenodd" clip-rule="evenodd" d="M35.7573 62.9544C35.7661 62.9542 35.775 62.956 35.7831 62.9596C35.7912 62.9633 35.7983 62.9687 35.8041 62.9754L35.9305 63.1099C35.8345 63.22 35.7154 63.3079 35.5817 63.3674C35.4255 63.4333 35.2569 63.465 35.0872 63.4605C34.9306 63.4623 34.7752 63.4328 34.6303 63.3739C34.4971 63.3187 34.3775 63.2357 34.2796 63.1304C34.1802 63.0216 34.1037 62.894 34.0548 62.7552C34 62.6005 33.9729 62.4374 33.9748 62.2734C33.9729 62.1093 34.001 61.9462 34.0576 61.7921C34.1096 61.6524 34.1892 61.5245 34.2917 61.4159C34.3937 61.3103 34.5169 61.2272 34.6532 61.172C34.8007 61.1127 34.9586 61.0832 35.1177 61.0854C35.2684 61.0826 35.4181 61.1095 35.5583 61.1645C35.6824 61.2158 35.7961 61.2889 35.894 61.3805L35.79 61.5244C35.7836 61.5352 35.7748 61.5444 35.7643 61.5514C35.7519 61.5589 35.7375 61.5625 35.7231 61.5616C35.6965 61.5589 35.6715 61.548 35.6514 61.5304C35.616 61.5044 35.5789 61.4806 35.5405 61.4592C35.486 61.4301 35.4285 61.4066 35.3691 61.3894C35.1759 61.3385 34.9716 61.3491 34.7848 61.4196C34.6864 61.4606 34.5982 61.5224 34.5263 61.6007C34.4511 61.6846 34.3939 61.7828 34.3582 61.8894C34.3161 62.013 34.2956 62.1429 34.2974 62.2734C34.2952 62.4053 34.3165 62.5366 34.3601 62.6612C34.3977 62.7674 34.4561 62.8652 34.5319 62.9489C34.6029 63.0264 34.6902 63.0874 34.7876 63.1276C34.8887 63.1695 34.9973 63.1906 35.1069 63.1895C35.1695 63.1899 35.2321 63.1858 35.2942 63.1774C35.3471 63.1704 35.3991 63.1576 35.4492 63.1393C35.4957 63.1227 35.54 63.1006 35.5812 63.0736C35.6242 63.0459 35.6649 63.0148 35.7029 62.9805C35.7172 62.9655 35.7365 62.9562 35.7573 62.9544Z" fill="#381CB9"/>
<path fill-rule="evenodd" clip-rule="evenodd" d="M37.7125 61.1106V61.375H36.9554V63.434H36.6408V61.375H35.8823V61.1106H37.7125Z" fill="#381CB9"/>
<path fill-rule="evenodd" clip-rule="evenodd" d="M37.8956 63.434V61.1106H38.641C38.7661 61.1084 38.891 61.1226 39.0123 61.1529C39.1046 61.1759 39.1914 61.2165 39.268 61.2726C39.3331 61.322 39.384 61.3877 39.4155 61.463C39.4478 61.5438 39.4637 61.6302 39.4623 61.7171C39.4625 61.7733 39.4533 61.8292 39.4351 61.8824C39.4173 61.936 39.39 61.9859 39.3546 62.03C39.3164 62.0776 39.2705 62.1187 39.2188 62.1515C39.1588 62.1895 39.0937 62.219 39.0254 62.239C39.1959 62.2725 39.3246 62.3336 39.4117 62.4224C39.456 62.4692 39.4904 62.5243 39.5128 62.5845C39.5352 62.6447 39.5453 62.7088 39.5424 62.7729C39.5435 62.8655 39.5248 62.9572 39.4876 63.042C39.451 63.1228 39.3964 63.1943 39.3279 63.251C39.2516 63.3126 39.1637 63.3585 39.0694 63.386C38.9561 63.4191 38.8383 63.4348 38.7202 63.4326L37.8956 63.434ZM38.2103 62.1515H38.6279C38.707 62.1532 38.7858 62.1435 38.862 62.1226C38.9214 62.1065 38.9769 62.0788 39.0254 62.0411C39.0666 62.0076 39.0988 61.9644 39.1191 61.9155C39.1403 61.8643 39.1509 61.8093 39.15 61.7539C39.15 61.6171 39.1088 61.5165 39.0264 61.4537C38.944 61.3908 38.8147 61.3606 38.6415 61.3606H38.2107L38.2103 62.1515ZM38.2103 62.3754V63.1845H38.7159C38.7951 63.1859 38.874 63.1756 38.9501 63.1537C39.0093 63.1366 39.0641 63.1069 39.1107 63.0667C39.1523 63.0306 39.1845 62.9849 39.2043 62.9335C39.2241 62.8794 39.234 62.8222 39.2333 62.7646C39.2356 62.7103 39.2251 62.6563 39.2027 62.6069C39.1802 62.5574 39.1465 62.5139 39.1041 62.4797C39.0183 62.4105 38.8895 62.3757 38.7178 62.3754H38.2103Z" fill="#381CB9"/>
<path fill-rule="evenodd" clip-rule="evenodd" d="M42.0005 62.273C42.0024 62.4363 41.9743 62.5986 41.9176 62.752C41.8662 62.8916 41.7865 63.0194 41.6835 63.1272C41.5811 63.2335 41.4571 63.3168 41.3197 63.3716C41.0172 63.4876 40.682 63.4876 40.3795 63.3716C40.2421 63.3167 40.1181 63.2334 40.0157 63.1272C39.9128 63.0193 39.8331 62.8916 39.7816 62.752C39.6711 62.4422 39.6711 62.1041 39.7816 61.7944C39.8333 61.6545 39.913 61.5264 40.0157 61.4178C40.1181 61.3113 40.2421 61.2277 40.3795 61.1725C40.6819 61.0558 41.0173 61.0558 41.3197 61.1725C41.4572 61.2275 41.5812 61.3112 41.6835 61.4178C41.7864 61.5263 41.866 61.6544 41.9176 61.7944C41.9743 61.9476 42.0024 62.1098 42.0005 62.273ZM41.676 62.273C41.6779 62.1426 41.658 62.0128 41.617 61.8889C41.5823 61.7826 41.5257 61.6846 41.4508 61.6012C41.3785 61.5222 41.2892 61.4604 41.1895 61.4206C40.9697 61.3362 40.7262 61.3362 40.5064 61.4206C40.4068 61.4609 40.3175 61.5226 40.2447 61.6012C40.1696 61.6847 40.1127 61.7826 40.0775 61.8889C39.9995 62.1389 39.9995 62.4065 40.0775 62.6565C40.1128 62.7627 40.1697 62.8604 40.2447 62.9438C40.3176 63.0221 40.4069 63.0836 40.5064 63.1239C40.7265 63.2065 40.9694 63.2065 41.1895 63.1239C41.2891 63.0841 41.3784 63.0225 41.4508 62.9438C41.5256 62.8605 41.5822 62.7627 41.617 62.6565C41.6581 62.5328 41.678 62.4032 41.676 62.273Z" fill="#381CB9"/>
<path fill-rule="evenodd" clip-rule="evenodd" d="M2.00632 58.8957V58.21H1.93562C1.86445 58.21 1.77689 58.2072 1.67061 58.2002C1.55492 58.1923 1.4402 58.1739 1.32787 58.1453C1.19876 58.1127 1.07327 58.0673 0.953297 58.0098C0.821522 57.9461 0.700015 57.8633 0.592769 57.764C0.533595 57.7083 0.479244 57.6477 0.430297 57.5829C0.369652 57.5026 0.318587 57.4156 0.278126 57.3236C0.229194 57.2123 0.1914 57.0964 0.165287 56.9778C0.132521 56.8303 0.116812 56.6796 0.118465 56.5285C0.118465 56.2027 0.165288 55.9392 0.263146 55.7297C0.342282 55.545 0.458967 55.3786 0.605878 55.2409C0.713902 55.1411 0.838184 55.0602 0.97343 55.0016C1.09638 54.9486 1.22417 54.9075 1.35503 54.8787C1.46672 54.855 1.58002 54.8394 1.69402 54.8322C1.79796 54.8252 1.8813 54.8224 1.9417 54.8224H2.00538V54.4211H2.8182V54.8224H2.88141C2.94275 54.8224 3.02516 54.8252 3.12863 54.8322C3.24385 54.8395 3.3584 54.8551 3.47137 54.8787C3.60256 54.9068 3.73057 54.948 3.85343 55.0016C3.98714 55.0609 4.11007 55.1418 4.21724 55.2409C4.3643 55.3786 4.48114 55.545 4.56044 55.7297C4.65689 55.9392 4.70512 56.2045 4.70512 56.5285C4.7068 56.6793 4.69267 56.8299 4.66298 56.9778C4.63866 57.097 4.60064 57.213 4.54967 57.3236C4.47301 57.4894 4.36491 57.6389 4.23128 57.764C4.12412 57.8631 4.00278 57.946 3.87123 58.0098C3.75128 58.0674 3.62578 58.1128 3.49665 58.1453C3.38416 58.1739 3.26928 58.1922 3.15345 58.2002C3.04763 58.2072 2.95914 58.21 2.88844 58.21H2.8182V58.8957H2.00632ZM1.94966 55.3382C1.83671 55.3398 1.72421 55.3529 1.61395 55.3773C1.4851 55.4048 1.36645 55.4674 1.27122 55.5579C1.20554 55.6181 1.15268 55.6908 1.11577 55.7716C1.07745 55.8546 1.04795 55.9413 1.02774 56.0304C1.00624 56.1206 0.993072 56.2125 0.988413 56.3051C0.983731 56.3982 0.981389 56.4829 0.981389 56.5611C0.981389 56.6213 0.983731 56.6902 0.988413 56.7678C0.993453 56.8484 1.00536 56.9285 1.024 57.0071C1.04331 57.0907 1.07172 57.1721 1.10875 57.2496C1.14703 57.3305 1.19969 57.4038 1.26419 57.4661C1.3638 57.5668 1.49209 57.6347 1.63174 57.6607C1.73673 57.6794 1.84302 57.69 1.94966 57.6923H2.0433V55.3382H1.94966ZM2.78449 57.6923H2.87814C2.98477 57.69 3.09107 57.6794 3.19605 57.6607C3.33571 57.6347 3.464 57.5668 3.56361 57.4661C3.62811 57.4038 3.68077 57.3305 3.71906 57.2496C3.75603 57.172 3.7846 57.0907 3.80427 57.0071C3.82245 56.9284 3.83435 56.8484 3.83985 56.7678C3.84407 56.6901 3.84641 56.6212 3.84641 56.5611C3.84641 56.4829 3.84641 56.3982 3.83985 56.3051C3.83496 56.2126 3.8218 56.1206 3.80052 56.0304C3.77994 55.9414 3.75029 55.8547 3.71203 55.7716C3.67512 55.6908 3.62226 55.6181 3.55658 55.5579C3.46128 55.4675 3.34266 55.4049 3.21385 55.3773C3.10358 55.3529 2.99109 55.3398 2.87814 55.3382H2.78449V57.6923Z" fill="#381CB9"/>
<path fill-rule="evenodd" clip-rule="evenodd" d="M9.22528 56.6645C9.22954 56.9853 9.18421 57.3048 9.09089 57.6119C9.0107 57.8772 8.8774 58.1238 8.699 58.3367C8.52683 58.5366 8.31181 58.6957 8.06972 58.8022C7.80089 58.9163 7.51076 58.9725 7.2185 58.967C6.90558 58.974 6.59477 58.9145 6.30688 58.7924C6.05634 58.6826 5.83401 58.5179 5.65652 58.3106C5.47669 58.097 5.34369 57.8483 5.26603 57.5807C5.17877 57.2812 5.13587 56.9707 5.13868 56.6589C5.13299 56.3255 5.18315 55.9934 5.2871 55.6762C5.37516 55.4099 5.51714 55.1644 5.70428 54.9547C5.88205 54.7597 6.10179 54.6071 6.34714 54.5083C6.61255 54.4043 6.8958 54.3527 7.18104 54.3565C7.49095 54.3495 7.79863 54.4102 8.08236 54.5343C8.33039 54.6462 8.54922 54.8133 8.72195 55.0227C8.89612 55.2387 9.02464 55.4874 9.09979 55.754C9.18498 56.05 9.22724 56.3566 9.22528 56.6645ZM8.22001 56.7111C8.22249 56.4823 8.20683 56.2536 8.17319 56.0272C8.14717 55.8452 8.09051 55.6688 8.00557 55.5054C7.93289 55.3676 7.82231 55.2531 7.68671 55.1753C7.53013 55.0939 7.35483 55.0546 7.17823 55.0613C6.7971 55.0613 6.52663 55.1963 6.36681 55.4663C6.20699 55.7363 6.12724 56.1213 6.12755 56.6212C6.12755 57.1529 6.20965 57.5628 6.37384 57.8511C6.53802 58.1394 6.81271 58.2834 7.1979 58.2831C7.5347 58.2831 7.78972 58.1602 7.96296 57.9144C8.1362 57.6686 8.22188 57.2671 8.22001 56.7097V56.7111Z" fill="#381CB9"/>
<path fill-rule="evenodd" clip-rule="evenodd" d="M12.2973 58.8956V56.8255H10.7451V58.8956H9.72113V54.4197H10.7451V56.218H12.2973V54.4197H13.3189V58.8956H12.2973Z" fill="#381CB9"/>
<path fill-rule="evenodd" clip-rule="evenodd" d="M17.0895 54.4197L17.988 58.0256H18.6472V59.6842H17.7717V58.6335H14.7489V59.6842H13.8733V58.0256H14.5578L15.6282 54.4197H17.0895ZM16.3169 55.0146L15.4011 58.0256H17.0553L16.3169 55.0146Z" fill="#381CB9"/>
<path fill-rule="evenodd" clip-rule="evenodd" d="M23.6988 58.8956V56.8255H22.1593V58.8956H21.1353V54.4197H22.1593V56.218H23.6988V54.4197H24.7293V58.8956H23.6988Z" fill="#381CB9"/>
<path fill-rule="evenodd" clip-rule="evenodd" d="M28.5668 58.8955L28.1454 57.7182H26.4641L26.0427 58.8955H25.1512L26.8555 54.4131H27.8537L29.5126 58.8955H28.5668ZM27.9511 57.0977C27.927 57.0438 27.9058 56.9886 27.8874 56.9325C27.8547 56.8394 27.8177 56.7253 27.7751 56.5898C27.7325 56.4544 27.6861 56.3105 27.6346 56.1564C27.5831 56.0024 27.5382 55.8566 27.4941 55.7161C27.4501 55.5755 27.4155 55.4558 27.3855 55.3544C27.3556 55.2529 27.3387 55.1868 27.3326 55.157H27.3256C27.3003 55.2394 27.2568 55.3739 27.194 55.561C27.1313 55.7482 27.0662 55.9451 26.9988 56.1495C26.9313 56.3538 26.8658 56.5475 26.8035 56.729C26.7413 56.9106 26.6972 57.0325 26.6724 57.0977H27.9511Z" fill="#381CB9"/>
<path fill-rule="evenodd" clip-rule="evenodd" d="M31.2086 56.3237C31.271 56.4701 31.323 56.5996 31.3645 56.7119C31.4066 56.8241 31.4516 56.9619 31.4984 57.1257C31.5362 56.9963 31.5674 56.8863 31.592 56.7957C31.6178 56.7049 31.6435 56.6267 31.6698 56.5597L31.7405 56.3735C31.7615 56.3171 31.784 56.2599 31.8079 56.1989L32.4634 54.4202H33.3183L31.99 57.8035C31.9054 58.0229 31.8264 58.2092 31.7531 58.3622C31.6901 58.502 31.5973 58.6265 31.4811 58.7271C31.4129 58.785 31.3367 58.833 31.2549 58.8696C31.1753 58.9069 31.0926 58.9371 31.0077 58.9599C30.9276 58.9818 30.8546 58.999 30.7886 59.012C30.7225 59.025 30.4552 59.0399 30.4177 59.0441H29.9107L29.7332 58.3407C29.7332 58.3407 30.0778 58.3873 30.1925 58.3775C30.2459 58.3724 30.4149 58.3775 30.5278 58.3407C30.6406 58.304 30.6991 58.3054 30.8508 58.2318C30.9239 58.1955 31.0592 57.9525 31.0592 57.9525L29.5094 54.4206H30.414L31.2086 56.3237Z" fill="#381CB9"/>
<path fill-rule="evenodd" clip-rule="evenodd" d="M37.4246 54.8722L37.1863 54.9243C37.1227 54.935 37.0601 54.9505 36.999 54.9709C36.9607 54.9847 36.9254 55.0054 36.8946 55.0319C36.8528 55.0685 36.8195 55.1138 36.7972 55.1645C36.7736 55.2158 36.7539 55.2687 36.7382 55.3228L36.6034 55.7883C36.5741 55.9005 36.5341 56.0096 36.484 56.1142C36.4378 56.1999 36.374 56.2749 36.2967 56.3344C36.1881 56.4181 36.064 56.4796 35.9315 56.5155V56.5285C35.986 56.5458 36.0395 56.5663 36.0916 56.59C36.149 56.6165 36.2028 56.6501 36.2517 56.69C36.3395 56.7543 36.4131 56.8357 36.468 56.9293C36.515 57.0157 36.5525 57.1068 36.5799 57.2012L36.8141 57.919C36.8609 58.0833 36.9203 58.1885 36.9854 58.2355C37.0278 58.2687 37.0752 58.2949 37.1259 58.3133C37.1827 58.3375 37.2414 58.357 37.3015 58.3715L37.5248 58.4301L37.3684 58.9538L37.0847 58.9282C36.9315 58.9162 36.7795 58.8923 36.63 58.8565C36.4951 58.8271 36.3695 58.765 36.2644 58.6759C36.194 58.6167 36.1378 58.5426 36.1 58.459C36.059 58.3595 36.0266 58.2567 36.0031 58.1518L35.8158 57.4069C35.7952 57.3385 35.769 57.2617 35.7339 57.1774C35.6998 57.0955 35.6459 57.0233 35.577 56.967C35.5005 56.9084 35.4106 56.8695 35.3153 56.8539C35.2341 56.8401 35.1519 56.8327 35.0695 56.8316H34.5764V58.8947H33.7182V54.4197H34.5764V56.2241H35.1435C35.2321 56.224 35.3206 56.2165 35.408 56.2017C35.5033 56.1857 35.5924 56.1444 35.666 56.0821C35.731 56.0273 35.7796 55.9558 35.8064 55.8754C35.8313 55.7976 35.8533 55.726 35.8729 55.6617L36.0134 55.118C36.0331 55.0449 36.0602 54.9602 36.0986 54.8629C36.1385 54.7626 36.2043 54.6745 36.2892 54.6073C36.3561 54.5483 36.435 54.5042 36.5205 54.4779C36.6451 54.4443 36.7722 54.4206 36.9007 54.4071L37.2589 54.3606L37.4246 54.8722Z" fill="#381CB9"/>
<path fill-rule="evenodd" clip-rule="evenodd" d="M40.644 58.8956V56.3274C40.644 56.2715 40.644 56.2063 40.6473 56.1304C40.6506 56.0546 40.6539 55.9754 40.659 55.8912C40.6642 55.8069 40.6693 55.7241 40.6745 55.6421C40.6796 55.5602 40.6848 55.4871 40.6899 55.4224C40.6337 55.5648 40.574 55.6995 40.5106 55.8265C40.4472 55.9534 40.38 56.0775 40.3088 56.1989L38.7328 58.8961H37.8268V54.4197H38.7023V57.0131C38.7023 57.1388 38.6958 57.284 38.6836 57.4502C38.6714 57.6164 38.6597 57.7551 38.649 57.8691C38.715 57.7048 38.7796 57.5619 38.8428 57.4385C38.906 57.3152 38.9763 57.1881 39.053 57.054L40.5757 54.4215H41.5201V58.8975L40.644 58.8956Z" fill="#381CB9"/>
</g>
<defs>
<clipPath id="clip0_2133_936">
<rect width="42" height="64" fill="white"/>
</clipPath>
</defs>
</svg>
