<svg width="35" height="53" viewBox="0 0 35 53" fill="none" xmlns="http://www.w3.org/2000/svg">
<g clip-path="url(#clip0_2040_517)">
<path d="M17.3045 19.5215C18.6597 19.5215 19.7583 18.436 19.7583 17.097C19.7583 15.7581 18.6597 14.6726 17.3045 14.6726C15.9493 14.6726 14.8506 15.7581 14.8506 17.097C14.8506 18.436 15.9493 19.5215 17.3045 19.5215Z" fill="white"/>
<path fill-rule="evenodd" clip-rule="evenodd" d="M12.4101 9.77764C12.1908 9.55366 8.16025 5.49854 4.34194 5.49854C0.415549 5.49854 0.000395555 9.04171 0.000395555 11.0001C0.000395555 12.3243 -0.131873 17.6308 6.20427 23.7746C6.20427 23.7746 0.755397 17.4716 0.755397 12.248C0.755397 7.034 5.21828 7.67972 9.8349 12.248L7.85279 14.1497H14.4219V7.84703L12.4101 9.77764Z" fill="white"/>
<path fill-rule="evenodd" clip-rule="evenodd" d="M9.89613 21.9322C9.66983 22.1488 5.56512 26.1311 5.56512 29.9036C5.56512 33.7826 9.15167 34.1928 11.1338 34.1928C12.4741 34.1928 17.8449 34.3235 24.0636 28.0632C24.0636 28.0632 17.6838 33.4464 12.3972 33.4464C7.11999 33.4464 7.77355 29.0374 12.3972 24.4761L14.3219 26.4341V19.946H7.94249L9.89613 21.9322Z" fill="white"/>
<path fill-rule="evenodd" clip-rule="evenodd" d="M22.1997 24.4172C22.419 24.6408 26.4496 28.6963 30.2679 28.6963C34.1939 28.6963 34.609 25.1528 34.609 23.1948C34.609 21.8706 34.7413 16.5641 28.4052 10.4199C28.4052 10.4199 33.854 16.7237 33.854 21.9465C33.854 27.1601 29.3912 26.5148 24.7745 21.9465L26.7567 20.0444H20.1884V26.3474L22.1997 24.4172Z" fill="white"/>
<path fill-rule="evenodd" clip-rule="evenodd" d="M25.0785 12.2611C25.3048 12.0444 29.4095 8.06214 29.4095 4.28958C29.4095 0.410632 25.823 0.000454055 23.8413 0.000454055C22.501 0.000454055 17.1301 -0.130232 10.9114 6.12998C10.9114 6.12998 17.2913 0.746407 22.5778 0.746407C27.855 0.746407 27.2015 5.15543 22.5778 9.71711L20.6527 7.75874V14.2487H27.0329L25.0793 12.2611H25.0785Z" fill="white"/>
<path d="M34.9204 44.1204H0V44.5679H34.9204V44.1204Z" fill="white"/>
<path fill-rule="evenodd" clip-rule="evenodd" d="M2.29346 40.5016H0.942649V41.5262H2.29346V41.9638H0.942649V43.6882H0.254761V39.9946H2.29346V40.5016Z" fill="white"/>
<path fill-rule="evenodd" clip-rule="evenodd" d="M2.89941 40.0381H3.62086V41.5215H4.11248C4.17725 41.5215 4.24944 41.5238 4.32864 41.5273C4.41134 41.5309 4.49365 41.5407 4.57485 41.5566C4.66139 41.5731 4.74626 41.5973 4.82847 41.6287C4.91555 41.6621 4.99678 41.7088 5.06921 41.7671C5.18954 41.8625 5.28718 41.983 5.35521 42.1198C5.43403 42.279 5.47296 42.4546 5.46875 42.6318C5.47093 42.7807 5.44335 42.9286 5.3876 43.067C5.34138 43.1854 5.27159 43.2934 5.18236 43.3847C5.10698 43.4591 5.01938 43.5203 4.92328 43.5658C4.82818 43.6114 4.72854 43.6471 4.62596 43.6722C4.52757 43.697 4.42717 43.7131 4.32591 43.7204C4.22681 43.7279 4.13772 43.7315 4.05864 43.7312H2.89941V40.0381ZM3.99933 43.2297C4.10511 43.229 4.21067 43.22 4.31499 43.2027C4.42602 43.1865 4.52908 43.1362 4.60958 43.0589C4.66226 43.0053 4.70364 42.9419 4.73131 42.8723C4.76281 42.7924 4.77844 42.7072 4.77735 42.6214C4.77743 42.5414 4.76424 42.462 4.73833 42.3862C4.71381 42.312 4.67228 42.2445 4.61699 42.1888C4.54851 42.1183 4.45991 42.07 4.36298 42.0504C4.27226 42.0326 4.18 42.0236 4.08751 42.0234H3.62281V43.2297H3.99933ZM5.7052 40.0381H6.46488V43.7312H5.7052V40.0381Z" fill="white"/>
<path fill-rule="evenodd" clip-rule="evenodd" d="M8.4685 41.1377C8.4685 41.1697 8.46538 41.2372 8.45953 41.3405C8.45368 41.4438 8.44392 41.5664 8.43183 41.7087C8.41973 41.8509 8.40412 42.007 8.38578 42.1759C8.36744 42.3447 8.34677 42.509 8.32102 42.6697C8.31282 42.7264 8.3019 42.7904 8.28746 42.8625C8.27205 42.9366 8.25158 43.0096 8.2262 43.0811C8.19912 43.156 8.16516 43.2284 8.12475 43.2973C8.08032 43.37 8.02433 43.435 7.95893 43.4901C7.85497 43.5814 7.73084 43.6474 7.59645 43.6828C7.46935 43.7166 7.34002 43.7416 7.20939 43.7576L7.01898 43.7788L6.88983 43.3467L7.01274 43.3197C7.08097 43.3026 7.14776 43.2803 7.21251 43.253C7.27551 43.2267 7.33437 43.1917 7.38731 43.1489C7.44259 43.1053 7.49041 43.0533 7.52895 42.9947C7.56857 42.9313 7.59953 42.863 7.62103 42.7915C7.64789 42.7031 7.66836 42.613 7.68229 42.5217C7.69868 42.4199 7.71507 42.302 7.73145 42.1666C7.74342 42.0564 7.76085 41.8775 7.78374 41.63C7.80598 41.3829 7.82275 41.0518 7.83563 40.64L7.85436 40.0371H10.1084V43.7302H9.40221V40.539H8.49933L8.4685 41.1377Z" fill="white"/>
<path fill-rule="evenodd" clip-rule="evenodd" d="M10.7159 40.0381H11.4214V41.5215H11.9399C12.0051 41.5215 12.0769 41.5238 12.1561 41.5273C12.2386 41.5309 12.3208 41.5407 12.4019 41.5566C12.4887 41.5731 12.5738 41.5972 12.6563 41.6287C12.7431 41.6623 12.8242 41.709 12.8966 41.7671C13.017 41.8625 13.1146 41.983 13.1826 42.1198C13.2614 42.279 13.3004 42.4546 13.2962 42.6318C13.2983 42.7807 13.2708 42.9285 13.2154 43.067C13.1686 43.1851 13.0989 43.293 13.0102 43.3847C12.9345 43.4591 12.8467 43.5204 12.7503 43.5658C12.6554 43.6115 12.5558 43.6471 12.4534 43.6722C12.355 43.6969 12.2546 43.7131 12.1533 43.7204C12.0546 43.7278 11.9653 43.7312 11.8861 43.7312H10.7155L10.7159 40.0381ZM11.8264 43.2297C11.9324 43.229 12.0382 43.22 12.1428 43.2027C12.2537 43.1865 12.3566 43.1362 12.437 43.0589C12.4898 43.0054 12.5312 42.9419 12.5587 42.8723C12.5902 42.7924 12.6059 42.7072 12.6048 42.6214C12.6049 42.5414 12.5917 42.4619 12.5657 42.3862C12.5413 42.3119 12.4996 42.2443 12.444 42.1888C12.3757 42.1183 12.2872 42.07 12.1904 42.0504C12.0995 42.0327 12.0072 42.0236 11.9145 42.0234H11.4229V43.2297H11.8264ZM13.7995 40.0381H14.5966V43.7312H13.7995V40.0381Z" fill="white"/>
<path fill-rule="evenodd" clip-rule="evenodd" d="M18.6499 43.7172L18.4599 41.4273C18.4521 41.3116 18.4446 41.1879 18.4388 41.0618C18.4329 40.9357 18.4298 40.8436 18.4298 40.7869C18.4142 40.8476 18.3934 40.9321 18.3674 41.0406C18.3414 41.1491 18.3087 41.262 18.2694 41.3795L17.5203 43.7172H16.9378L16.2538 41.4812C16.2343 41.4208 16.2154 41.3558 16.1972 41.2862C16.179 41.2165 16.1622 41.1498 16.1469 41.0861C16.1309 41.0221 16.1172 40.9635 16.1055 40.9103C16.0938 40.8571 16.0837 40.8143 16.0755 40.7819C16.0755 40.8143 16.0755 40.859 16.0723 40.9126C16.0692 40.9662 16.0677 41.0283 16.0638 41.0942C16.0599 41.1601 16.0548 41.2276 16.0489 41.297C16.0431 41.3664 16.0376 41.4296 16.0341 41.4862L15.8554 43.7175H15.1839L15.5585 40.0244H16.468L17.0981 42.1162C17.1457 42.2731 17.1805 42.4026 17.2019 42.5059C17.2234 42.6092 17.2409 42.689 17.253 42.7461C17.2604 42.689 17.2776 42.6038 17.3034 42.4901C17.3291 42.3764 17.3619 42.2549 17.4013 42.127L18.0494 40.0244H18.9593L19.3218 43.7175L18.6499 43.7172Z" fill="white"/>
<path fill-rule="evenodd" clip-rule="evenodd" d="M24.2876 40.4406L24.0976 40.4834C24.0475 40.4926 23.9982 40.5055 23.9501 40.5219C23.9196 40.5336 23.8916 40.5507 23.8674 40.5725C23.8338 40.6031 23.8072 40.6404 23.7893 40.6819C23.7705 40.7243 23.7547 40.768 23.7421 40.8126L23.636 41.1981C23.6127 41.2897 23.5811 41.379 23.5416 41.4649C23.5056 41.5347 23.4556 41.5965 23.3945 41.6465C23.3099 41.7154 23.2117 41.7662 23.1061 41.7957V41.8068C23.1495 41.8212 23.192 41.838 23.2333 41.8573C23.2791 41.8795 23.322 41.9072 23.3609 41.9398C23.4311 41.9936 23.4896 42.0607 23.533 42.1372C23.5703 42.209 23.6001 42.2843 23.622 42.362L23.8061 42.9541C23.8255 43.0139 23.8482 43.0726 23.874 43.1299C23.885 43.1599 23.9027 43.1871 23.9259 43.2094C23.9491 43.2316 23.9771 43.2483 24.0078 43.2583H24.3695V44.3438H23.7242V43.7517C23.591 43.7263 23.4668 43.6675 23.3633 43.5809C23.3068 43.5316 23.2621 43.4705 23.2326 43.4021C23.1995 43.3199 23.1734 43.2352 23.1545 43.1488L23.0062 42.5351C22.988 42.4706 22.9663 42.4071 22.9411 42.345C22.915 42.2779 22.8722 42.2183 22.8166 42.1719C22.757 42.1235 22.6855 42.0914 22.6094 42.0786C22.5451 42.0669 22.4798 42.0606 22.4143 42.0597H22.085V43.7625H21.3437V40.069H22.085V41.5582H22.4752C22.5456 41.5579 22.6158 41.5516 22.6851 41.5393C22.7611 41.5255 22.8319 41.4914 22.8896 41.4406C22.942 41.3947 22.981 41.3357 23.0023 41.2698C23.0219 41.2062 23.0414 41.1472 23.0554 41.0937L23.1678 40.6457C23.1834 40.5852 23.2068 40.515 23.2357 40.4344C23.2668 40.3526 23.3188 40.2801 23.3867 40.224C23.4392 40.1755 23.5018 40.1391 23.5701 40.1172C23.6689 40.0893 23.7699 40.0697 23.8721 40.0586L24.1565 40.02L24.2868 40.4422L24.2876 40.4406Z" fill="white"/>
<path fill-rule="evenodd" clip-rule="evenodd" d="M27.6724 41.89C27.6757 42.1546 27.6395 42.4181 27.5651 42.6722C27.5016 42.8897 27.3956 43.0927 27.2529 43.2698C27.1173 43.4345 26.9452 43.5664 26.75 43.6553C26.5361 43.7497 26.3038 43.7963 26.0695 43.7917C25.8193 43.7973 25.5709 43.7481 25.3422 43.6476C25.1408 43.5557 24.9631 43.4196 24.8229 43.2497C24.6783 43.072 24.572 42.867 24.5107 42.6472C24.4411 42.3995 24.4068 42.1435 24.4089 41.8866C24.404 41.6123 24.4435 41.339 24.526 41.077C24.5958 40.8586 24.709 40.6563 24.8592 40.4818C24.9996 40.3218 25.1752 40.1957 25.3727 40.1132C25.584 40.0275 25.8107 39.9849 26.0391 39.9879C26.2868 39.9825 26.5326 40.0327 26.7578 40.1348C26.9575 40.2282 27.1326 40.3661 27.2693 40.5377C27.4094 40.7171 27.5121 40.9221 27.5713 41.141C27.6395 41.3849 27.6735 41.637 27.6724 41.89ZM26.8819 41.9286C26.8835 41.7369 26.8705 41.5454 26.8429 41.3557C26.8219 41.2037 26.776 41.0561 26.7071 40.9186C26.6491 40.8042 26.5596 40.7083 26.4488 40.6422C26.3226 40.5741 26.18 40.5411 26.0364 40.5465C25.7279 40.5465 25.5087 40.6596 25.3789 40.8858C25.2491 41.112 25.1841 41.4345 25.1838 41.8534C25.1838 42.2991 25.2504 42.6425 25.3836 42.8839C25.5168 43.1252 25.7394 43.2457 26.0516 43.2455C26.3255 43.2455 26.5324 43.1427 26.6724 42.9371C26.8123 42.7315 26.8821 42.395 26.8819 41.9278V41.9286Z" fill="white"/>
<path fill-rule="evenodd" clip-rule="evenodd" d="M30.5558 41.1429C30.5586 41.3112 30.5264 41.4782 30.4614 41.6337C30.4027 41.7735 30.3153 41.8998 30.2047 42.0045C30.0942 42.1077 29.9637 42.1877 29.8211 42.2397C29.669 42.2956 29.5078 42.3235 29.3455 42.3222H28.7602V43.7312H28.0969V40.0381H29.0911C29.2284 40.0381 29.3451 40.0416 29.4423 40.0485C29.5276 40.0543 29.6126 40.065 29.6967 40.0805C29.7612 40.0928 29.8245 40.1107 29.8859 40.1341C29.9404 40.1558 29.9927 40.1827 30.042 40.2143C30.2026 40.3054 30.3345 40.4389 30.4228 40.5998C30.513 40.7668 30.5588 40.9537 30.5558 41.1429ZM29.8699 41.1815C29.8699 40.9759 29.8194 40.8217 29.7185 40.7189C29.6601 40.6578 29.5879 40.6112 29.5078 40.5828C29.4086 40.5501 29.3045 40.5347 29.2 40.5373H28.761V41.8345H29.2C29.4306 41.8345 29.5995 41.781 29.7072 41.6742C29.8149 41.5674 29.8699 41.4001 29.8699 41.1803V41.1815Z" fill="white"/>
<path fill-rule="evenodd" clip-rule="evenodd" d="M30.9495 40.0381H31.6347V41.5215H32.106C32.1716 41.5215 32.2445 41.5238 32.3253 41.5273C32.409 41.5309 32.4924 41.5407 32.5746 41.5566C32.6624 41.5731 32.7486 41.5973 32.8321 41.6287C32.9202 41.6619 33.0025 41.7086 33.076 41.7671C33.1979 41.8622 33.2971 41.9826 33.3667 42.1198C33.4471 42.2786 33.4872 42.4543 33.4837 42.6318C33.4857 42.7808 33.4578 42.9287 33.4014 43.067C33.354 43.1855 33.2832 43.2935 33.1931 43.3847C33.1163 43.4592 33.0274 43.5205 32.9301 43.5658C32.8335 43.6115 32.7325 43.6472 32.6285 43.6722C32.5286 43.697 32.4268 43.7131 32.3241 43.7204C32.2239 43.7278 32.1333 43.7312 32.0533 43.7312H30.9515L30.9495 40.0381ZM31.9913 43.2297C32.0986 43.229 32.2057 43.22 32.3116 43.2027C32.4239 43.1865 32.5284 43.1362 32.6105 43.0589C32.6636 43.0053 32.7053 42.9419 32.7334 42.8723C32.7654 42.7925 32.7812 42.7072 32.7799 42.6214C32.7802 42.5414 32.767 42.4619 32.7408 42.3862C32.7156 42.3118 32.6733 42.2443 32.6172 42.1888C32.5474 42.1181 32.4576 42.0698 32.3596 42.0504C32.2676 42.0327 32.174 42.0236 32.0803 42.0234H31.6347V43.2297H31.9913ZM33.8306 40.0381H34.5997V43.7312H33.8306V40.0381Z" fill="white"/>
<path fill-rule="evenodd" clip-rule="evenodd" d="M1.93332 38.7494H1.72926C1.70876 38.7502 1.68862 38.7439 1.67229 38.7317C1.65771 38.72 1.64653 38.7047 1.63991 38.6873L1.45769 38.2228H0.583687L0.401864 38.6873C0.395722 38.7044 0.384754 38.7194 0.37026 38.7305C0.353835 38.7435 0.333178 38.7503 0.312123 38.7494H0.109619L0.889981 36.825H1.15608L1.93332 38.7494ZM0.657432 38.0351H1.38395L1.07805 37.2517C1.06829 37.2286 1.05854 37.202 1.04878 37.1715C1.03903 37.1411 1.02966 37.1083 1.01952 37.0732C1.01054 37.1083 1.00118 37.1415 0.991817 37.1723C0.982453 37.2031 0.972699 37.2301 0.962554 37.2536L0.657432 38.0351Z" fill="white"/>
<path fill-rule="evenodd" clip-rule="evenodd" d="M2.58571 37.6681H2.7886C2.82412 37.669 2.85945 37.6627 2.89239 37.6496C2.92641 37.6323 2.95561 37.607 2.97745 37.5759L3.48703 36.899C3.5 36.8783 3.51681 36.8603 3.53658 36.8458C3.55662 36.8318 3.5807 36.8245 3.60525 36.825H3.82687L3.23848 37.6156C3.19732 37.676 3.13687 37.7209 3.0668 37.7433C3.11129 37.7541 3.15275 37.7746 3.18815 37.8034C3.22536 37.8363 3.25744 37.8745 3.28335 37.9167L3.87838 38.7494H3.64193C3.61778 38.75 3.59415 38.7425 3.57482 38.7282C3.55367 38.7113 3.53593 38.6907 3.52253 38.6673L3.0071 37.9626C2.98809 37.9318 2.96117 37.9065 2.92907 37.8894C2.89422 37.8737 2.85609 37.8666 2.81787 37.8685H2.58376V38.7494H2.32117V36.825H2.58376L2.58571 37.6681Z" fill="white"/>
<path fill-rule="evenodd" clip-rule="evenodd" d="M4.28186 38.7494V36.825H4.54445V38.5451H5.5199V36.825H5.78484V38.5451H6.08255V39.1399C6.08298 39.1504 6.08108 39.1609 6.07696 39.1707C6.07285 39.1804 6.06664 39.1891 6.05875 39.1962C6.04224 39.211 6.02051 39.2187 5.99827 39.2178H5.84219V38.7494H4.28186Z" fill="white"/>
<path fill-rule="evenodd" clip-rule="evenodd" d="M7.80164 36.9067C7.81505 36.8856 7.83163 36.8666 7.8508 36.8504C7.86993 36.8339 7.89448 36.8249 7.91986 36.825H8.11495V38.7494H7.85158V37.382C7.85158 37.3435 7.85158 37.3049 7.85392 37.2637C7.85626 37.2224 7.85978 37.1777 7.86602 37.131C7.85181 37.1694 7.83526 37.2069 7.81647 37.2432C7.80076 37.2744 7.7833 37.3046 7.76418 37.3338L6.85116 38.6673C6.83766 38.6884 6.82109 38.7075 6.80199 38.7239C6.78286 38.7404 6.75832 38.7495 6.73293 38.7494H6.53784V36.825H6.8016V38.1931C6.8016 38.2317 6.80161 38.2702 6.79888 38.3134C6.79614 38.3566 6.79263 38.3997 6.78678 38.4472C6.80085 38.4076 6.8174 38.369 6.83633 38.3315C6.85389 38.2972 6.87145 38.266 6.88861 38.2382L7.80164 36.9067Z" fill="white"/>
<path fill-rule="evenodd" clip-rule="evenodd" d="M10.5485 37.7881C10.5501 37.9232 10.5267 38.0575 10.4795 38.1843C10.4364 38.3 10.37 38.4059 10.2844 38.4955C10.1986 38.5831 10.0952 38.6521 9.9808 38.6978C9.72862 38.7935 9.4495 38.7935 9.19732 38.6978C9.08306 38.652 8.97979 38.5831 8.89415 38.4955C8.80846 38.4059 8.74209 38.3 8.69906 38.1843C8.60699 37.9277 8.60699 37.6476 8.69906 37.391C8.74227 37.2753 8.80862 37.1693 8.89415 37.0795C8.97964 36.9915 9.08294 36.9223 9.19732 36.8763C9.44922 36.7792 9.7289 36.7792 9.9808 36.8763C10.0953 36.9223 10.1987 36.9915 10.2844 37.0795C10.3699 37.1693 10.4362 37.2753 10.4795 37.391C10.5267 37.5181 10.5501 37.6527 10.5485 37.7881ZM10.2781 37.7881C10.2797 37.68 10.2632 37.5724 10.2293 37.4696C10.2001 37.3815 10.1529 37.3003 10.0904 37.231C10.0301 37.1659 9.95585 37.1148 9.87311 37.0814C9.68985 37.012 9.48709 37.012 9.30384 37.0814C9.22092 37.1149 9.14646 37.1659 9.08573 37.231C9.02307 37.3002 8.97552 37.3814 8.94604 37.4696C8.88102 37.6767 8.88102 37.8983 8.94604 38.1053C8.97561 38.1932 9.02316 38.2742 9.08573 38.3432C9.14628 38.4082 9.2208 38.4591 9.30384 38.492C9.48719 38.5609 9.68975 38.5609 9.87311 38.492C9.95596 38.4592 10.0303 38.4083 10.0904 38.3432C10.1528 38.2741 10.2 38.1932 10.2293 38.1053C10.2639 38.0031 10.281 37.8959 10.2801 37.7881H10.2781Z" fill="white"/>
<path fill-rule="evenodd" clip-rule="evenodd" d="M12.6383 38.7494H12.3746V37.8735H11.3238V38.7494H11.0604V36.825H11.3238V37.6831H12.3746V36.825H12.6383V38.7494Z" fill="white"/>
<path fill-rule="evenodd" clip-rule="evenodd" d="M14.4718 36.825V37.037H13.535V37.6761H14.2935V37.8805H13.535V38.537H14.473L14.4718 38.7494H13.2712V36.825H14.4718Z" fill="white"/>
<path fill-rule="evenodd" clip-rule="evenodd" d="M15.2397 38.0292V38.7493H14.9775V36.8249H15.5526C15.6612 36.823 15.7695 36.8373 15.8737 36.8673C15.9568 36.8911 16.0339 36.932 16.1 36.9872C16.1594 37.0383 16.2053 37.1028 16.2339 37.1753C16.2645 37.2537 16.2796 37.3372 16.2783 37.4213C16.2793 37.5054 16.2631 37.5889 16.2307 37.6668C16.1997 37.7407 16.152 37.8066 16.0914 37.8596C16.025 37.9161 15.9478 37.9588 15.8644 37.9852C15.7634 38.0166 15.658 38.0317 15.5522 38.03L15.2397 38.0292ZM15.2397 37.8226H15.5518C15.6194 37.8238 15.6867 37.8138 15.7508 37.7929C15.8044 37.7754 15.8539 37.7475 15.8964 37.7108C15.9355 37.6757 15.9659 37.6321 15.9853 37.5836C16.0054 37.5318 16.0155 37.4767 16.015 37.4213C16.018 37.368 16.0093 37.3147 15.9895 37.265C15.9697 37.2154 15.9393 37.1706 15.9003 37.1337C15.8238 37.0648 15.7075 37.0304 15.5514 37.0304H15.2393L15.2397 37.8226Z" fill="white"/>
<path fill-rule="evenodd" clip-rule="evenodd" d="M18.0611 36.825V38.7494H17.7977V37.0304H17.1532C17.1407 37.2774 17.1238 37.4919 17.1024 37.6738C17.0851 37.8304 17.0591 37.9858 17.0244 38.1395C17.0011 38.2476 16.9666 38.353 16.9214 38.4541C16.8902 38.5248 16.8475 38.5899 16.795 38.6468C16.7543 38.69 16.7037 38.7228 16.6475 38.7425C16.5933 38.7594 16.5369 38.768 16.4801 38.7679C16.4421 38.769 16.4041 38.7647 16.3673 38.7552C16.3412 38.7471 16.3283 38.7336 16.3283 38.7166V38.5516H16.4235C16.4603 38.5515 16.4967 38.5445 16.5308 38.5308C16.5719 38.5125 16.6071 38.4834 16.6327 38.4468C16.6724 38.3916 16.7035 38.331 16.7251 38.2667C16.7598 38.1663 16.7859 38.0631 16.8032 37.9583C16.827 37.83 16.8472 37.6738 16.8644 37.4888C16.8816 37.3038 16.8949 37.0832 16.9034 36.8261L18.0611 36.825Z" fill="white"/>
<path d="M18.9577 36.825H18.694V38.749H18.9577V36.825Z" fill="white"/>
<path fill-rule="evenodd" clip-rule="evenodd" d="M19.8536 37.6681H20.0561C20.0918 37.669 20.1274 37.6627 20.1606 37.6496C20.1945 37.6321 20.2237 37.6069 20.2457 37.5759L20.7553 36.899C20.768 36.8781 20.7848 36.86 20.8048 36.8458C20.8247 36.8318 20.8487 36.8245 20.8731 36.825H21.0951L20.5067 37.6156C20.4854 37.6462 20.459 37.6731 20.4287 37.6951C20.4001 37.7161 20.3682 37.7324 20.3343 37.7432C20.3787 37.7543 20.4201 37.7749 20.4556 37.8034C20.4927 37.8362 20.5245 37.8745 20.55 37.9167L21.1454 38.7494H20.9113C20.8872 38.75 20.8635 38.7426 20.8442 38.7282C20.8228 38.7115 20.805 38.6908 20.7916 38.6673L20.2761 37.9626C20.2571 37.9318 20.2302 37.9065 20.1981 37.8894C20.1631 37.8736 20.1248 37.8665 20.0865 37.8685H19.8524V38.7494H19.5906V36.825H19.8524L19.8536 37.6681Z" fill="white"/>
<path fill-rule="evenodd" clip-rule="evenodd" d="M22.6437 37.6681H22.8462C22.8819 37.669 22.9173 37.6627 22.9504 37.6496C22.9843 37.6322 23.0134 37.6069 23.0351 37.5759L23.545 36.899C23.5579 36.8782 23.5747 36.8601 23.5946 36.8458C23.6146 36.8318 23.6387 36.8245 23.6633 36.825H23.8849L23.2965 37.6156C23.2551 37.6756 23.1949 37.7205 23.1252 37.7433C23.1694 37.7542 23.2106 37.7747 23.2458 37.8034C23.2831 37.8362 23.3152 37.8744 23.341 37.9167L23.7897 38.5451H24.0652V39.1399C24.0656 39.1504 24.0637 39.1609 24.0597 39.1706C24.0556 39.1803 24.0495 39.189 24.0417 39.1962C24.0252 39.2109 24.0035 39.2187 23.9813 39.2178H23.8252V38.7494H23.7003C23.6761 38.7499 23.6523 38.7425 23.6328 38.7282C23.6119 38.7112 23.5943 38.6906 23.5809 38.6673L23.0655 37.9626C23.0465 37.9318 23.0196 37.9065 22.9875 37.8894C22.9525 37.8737 22.9142 37.8666 22.8759 37.8685H22.6418V38.7494H22.3796V36.825H22.6418L22.6437 37.6681Z" fill="white"/>
<path fill-rule="evenodd" clip-rule="evenodd" d="M26.1687 37.7881C26.1701 37.9232 26.1466 38.0575 26.0992 38.1843C26.0562 38.3 25.9898 38.4059 25.9041 38.4955C25.8183 38.5831 25.7149 38.6521 25.6006 38.6978C25.3484 38.7935 25.0692 38.7935 24.8171 38.6978C24.7028 38.6521 24.5995 38.5832 24.5139 38.4955C24.4281 38.406 24.3617 38.3001 24.3188 38.1843C24.2267 37.9277 24.2267 37.6476 24.3188 37.391C24.3619 37.2752 24.4282 37.1692 24.5139 37.0795C24.5993 36.9914 24.7026 36.9222 24.8171 36.8763C25.069 36.7792 25.3486 36.7792 25.6006 36.8763C25.715 36.9223 25.8185 36.9915 25.9041 37.0795C25.9896 37.1693 26.056 37.2753 26.0992 37.391C26.1466 37.5181 26.1701 37.6526 26.1687 37.7881ZM25.8979 37.7881C25.8993 37.6794 25.8826 37.5713 25.8483 37.4681C25.819 37.38 25.7717 37.2988 25.7094 37.2295C25.649 37.1643 25.5748 37.1133 25.4921 37.0799C25.3088 37.0105 25.1061 37.0105 24.9228 37.0799C24.8398 37.1133 24.7652 37.1644 24.7043 37.2295C24.6418 37.2986 24.5945 37.3799 24.5654 37.4681C24.4999 37.675 24.4999 37.8968 24.5654 38.1038C24.5945 38.1917 24.6418 38.2727 24.7043 38.3416C24.765 38.4067 24.8397 38.4576 24.9228 38.4904C25.1062 38.5593 25.3087 38.5593 25.4921 38.4904C25.5749 38.4576 25.6492 38.4068 25.7094 38.3416C25.7716 38.2725 25.8189 38.1916 25.8483 38.1038C25.8823 38.0019 25.899 37.8953 25.8979 37.7881Z" fill="white"/>
<path fill-rule="evenodd" clip-rule="evenodd" d="M27.9892 37.0304H27.0797V37.6507H27.546V37.8481H27.0797V38.7494H26.816V37.8481H26.4843V37.6507H26.816V36.825H27.9892V37.0304Z" fill="white"/>
<path fill-rule="evenodd" clip-rule="evenodd" d="M29.7501 38.7494H29.5461C29.5256 38.7502 29.5054 38.7439 29.4891 38.7317C29.4744 38.72 29.4631 38.7047 29.4563 38.6873L29.2745 38.2228H28.4001L28.2183 38.6873C28.2121 38.7043 28.2013 38.7193 28.1871 38.7305C28.1704 38.7435 28.1497 38.7502 28.1285 38.7494H27.926L28.7064 36.825H28.9725L29.7501 38.7494ZM28.4738 38.0351H29.2039L28.898 37.2517C28.8867 37.2255 28.8769 37.1988 28.8687 37.1715C28.8591 37.1412 28.8493 37.1084 28.8394 37.0732C28.8305 37.1083 28.8211 37.1415 28.8117 37.1723C28.8024 37.2031 28.7922 37.2301 28.7825 37.2536L28.4738 38.0351Z" fill="white"/>
<path fill-rule="evenodd" clip-rule="evenodd" d="M31.1302 38.1233L31.1599 38.1938C31.1692 38.1695 31.1786 38.1456 31.1887 38.1221C31.1981 38.0987 31.2089 38.076 31.2211 38.0539L31.8813 36.8712C31.8882 36.8544 31.9011 36.8407 31.9176 36.8326C31.9355 36.8277 31.954 36.8255 31.9726 36.826H32.1677V38.7505H31.9352V37.3365C31.9352 37.3172 31.9352 37.2979 31.9352 37.2759C31.9352 37.254 31.9352 37.2324 31.9394 37.21L31.2722 38.4132C31.2642 38.4315 31.2508 38.4471 31.2338 38.4579C31.2168 38.4687 31.1969 38.4742 31.1766 38.4737H31.1376C31.1175 38.4741 31.0976 38.4686 31.0807 38.4578C31.0637 38.447 31.0504 38.4315 31.0424 38.4132L30.3604 37.2062C30.3631 37.2293 30.3655 37.252 30.3666 37.2748C30.3678 37.2975 30.3666 37.3172 30.3666 37.3365V38.7505H30.1403V36.826H30.3354C30.3539 36.8254 30.3723 36.8276 30.39 36.8326C30.4065 36.8408 30.4195 36.8544 30.4267 36.8712L31.0994 38.0554C31.1099 38.0751 31.1201 38.0974 31.1302 38.1233Z" fill="white"/>
<path fill-rule="evenodd" clip-rule="evenodd" d="M33.0627 36.8249V37.6534H33.4416C33.5453 37.6514 33.6488 37.6643 33.7487 37.6919C33.8264 37.7129 33.8989 37.7494 33.9617 37.7991C34.0157 37.8433 34.0582 37.8998 34.0854 37.9637C34.1124 38.0298 34.1257 38.1006 34.1244 38.1719C34.1257 38.2539 34.1102 38.3353 34.0788 38.4113C34.0495 38.4814 34.0039 38.5438 33.9457 38.5932C33.8828 38.6461 33.8095 38.6855 33.7303 38.7089C33.6361 38.7367 33.538 38.7498 33.4397 38.7474H32.7994V36.823L33.0627 36.8249ZM33.0627 37.8604V38.5423H33.4404C33.5064 38.5438 33.5722 38.5352 33.6355 38.5169C33.684 38.5028 33.7289 38.4787 33.7674 38.4464C33.8009 38.4167 33.8265 38.3794 33.8419 38.3376C33.8742 38.2459 33.8742 38.1461 33.8419 38.0543C33.8266 38.0133 33.8009 37.9768 33.7674 37.9483C33.7291 37.9169 33.6842 37.8944 33.6359 37.8824C33.5722 37.8664 33.5066 37.859 33.4408 37.8604H33.0627ZM34.7464 38.7494H34.4826V36.8249H34.7464V38.7494Z" fill="white"/>
<path fill-rule="evenodd" clip-rule="evenodd" d="M1.92789 52.5312H1.72383C1.70335 52.5324 1.68314 52.5262 1.66686 52.5139C1.65244 52.5022 1.64128 52.4871 1.63448 52.4699L1.45187 52.005H0.578255L0.396432 52.4699C0.390059 52.4868 0.379127 52.5016 0.364828 52.5127C0.348266 52.5255 0.327673 52.532 0.306691 52.5312H0.104187L0.882598 50.6072H1.14987L1.92789 52.5312ZM0.651609 51.8173H1.37891L1.07183 51.0343C1.06169 51.0108 1.05233 50.9842 1.04257 50.9534C1.03282 50.9225 1.02345 50.8905 1.01331 50.8558C1.00433 50.8905 0.994969 50.9233 0.985604 50.9545C0.97624 50.9857 0.966095 51.0127 0.956341 51.0355L0.651609 51.8173Z" fill="white"/>
<path fill-rule="evenodd" clip-rule="evenodd" d="M2.30833 51.4507H2.51123C2.54678 51.4517 2.58215 51.4452 2.61501 51.4318C2.649 51.4143 2.67819 51.3889 2.70007 51.3578L3.20965 50.6812C3.22247 50.6605 3.23931 50.6424 3.2592 50.628C3.27922 50.614 3.30331 50.6066 3.32788 50.6072H3.5495L2.96071 51.3979C2.93937 51.4285 2.913 51.4553 2.88268 51.4773C2.85392 51.4981 2.82207 51.5143 2.78826 51.5255C2.83266 51.5362 2.87401 51.5568 2.90921 51.5856C2.94665 51.6182 2.97876 51.6563 3.00442 51.6986L3.59983 52.5313H3.36338C3.33916 52.5319 3.31541 52.5246 3.29588 52.5104C3.27474 52.4936 3.25701 52.4729 3.2436 52.4495L2.72856 51.7444C2.70932 51.7138 2.68245 51.6886 2.65052 51.6712C2.61542 51.6559 2.57725 51.6488 2.53893 51.6504H2.30482V52.5313H2.0473V50.6072H2.3095L2.30833 51.4507Z" fill="white"/>
<path fill-rule="evenodd" clip-rule="evenodd" d="M3.73248 52.5312V50.6072H3.9982V52.3273H4.9713V50.6072H5.23624V52.3273H5.53395V52.9221C5.53434 52.9327 5.53242 52.9433 5.52831 52.953C5.5242 52.9628 5.518 52.9716 5.51015 52.9788C5.49354 52.9934 5.47185 53.001 5.44967 53H5.29359V52.5312H3.73248Z" fill="white"/>
<path fill-rule="evenodd" clip-rule="evenodd" d="M6.98075 50.6908C6.99405 50.6695 7.01063 50.6503 7.02991 50.6341C7.04907 50.6174 7.07382 50.6083 7.09936 50.6087H7.29445V52.5327H7.03108V51.1661C7.03108 51.1283 7.03186 51.0886 7.03343 51.047C7.03343 51.0057 7.03928 50.9614 7.04552 50.9147C7.0312 50.953 7.01479 50.9904 6.99636 51.0269C6.98061 51.0581 6.96302 51.0884 6.94368 51.1175L6.03066 52.451C6.01735 52.4722 6.00076 52.4912 5.98149 52.5073C5.96256 52.5241 5.93789 52.5332 5.91244 52.5327H5.71735V50.6087H5.9811V51.9768C5.9811 52.0154 5.98111 52.0539 5.97837 52.0971C5.97564 52.1403 5.97252 52.1831 5.96628 52.2309C5.98035 52.1913 5.9969 52.1527 6.01583 52.1152C6.03339 52.0805 6.05095 52.0497 6.06812 52.0223L6.98075 50.6908Z" fill="white"/>
<path fill-rule="evenodd" clip-rule="evenodd" d="M9.45561 51.5698C9.45722 51.7051 9.43382 51.8395 9.38655 51.9665C9.34361 52.0821 9.27722 52.1879 9.19146 52.2772C9.10589 52.3651 9.00243 52.4341 8.8879 52.4796C8.76307 52.5287 8.62973 52.5532 8.49538 52.5517C8.36179 52.5532 8.22922 52.5287 8.1052 52.4796C7.99074 52.4342 7.88738 52.3652 7.80203 52.2772C7.71613 52.188 7.64973 52.0822 7.60694 51.9665C7.51432 51.7101 7.51432 51.4299 7.60694 51.1735C7.6499 51.0576 7.71628 50.9515 7.80203 50.8617C7.88735 50.7735 7.99069 50.7042 8.1052 50.6585C8.22908 50.6089 8.36173 50.5843 8.49538 50.586C8.62979 50.5843 8.76321 50.6089 8.8879 50.6585C9.00247 50.7043 9.10593 50.7735 9.19146 50.8617C9.27707 50.9516 9.34343 51.0577 9.38655 51.1735C9.43378 51.3004 9.45718 51.4347 9.45561 51.5698ZM9.18522 51.5698C9.18695 51.4619 9.17046 51.3544 9.13644 51.2518C9.10724 51.1638 9.05995 51.0827 8.99754 51.0136C8.93739 50.9482 8.86311 50.8971 8.78021 50.864C8.59705 50.7941 8.3941 50.7941 8.21094 50.864C8.12781 50.8971 8.05327 50.9482 7.99283 51.0136C7.93004 51.0825 7.88247 51.1637 7.85314 51.2518C7.78812 51.4588 7.78812 51.6805 7.85314 51.8875C7.88256 51.9755 7.93012 52.0565 7.99283 52.1253C8.05339 52.1905 8.1279 52.2415 8.21094 52.2745C8.39439 52.3429 8.59676 52.3429 8.78021 52.2745C8.86301 52.2414 8.93726 52.1905 8.99754 52.1253C9.05987 52.0563 9.10715 51.9754 9.13644 51.8875C9.17053 51.785 9.18701 51.6777 9.18522 51.5698Z" fill="white"/>
<path fill-rule="evenodd" clip-rule="evenodd" d="M11.2739 52.5312H11.0101V51.6557H9.95938V52.5312H9.69562V50.6072H9.95938V51.4653H11.0101V50.6072H11.2739V52.5312Z" fill="white"/>
<path fill-rule="evenodd" clip-rule="evenodd" d="M12.835 50.6072V50.8192H11.8986V51.4584H12.6571V51.6623H11.8986V52.3192H12.8366L12.8354 52.5312H11.6352V50.6072H12.8354H12.835Z" fill="white"/>
<path fill-rule="evenodd" clip-rule="evenodd" d="M13.3317 51.8115V52.5312H13.0691V50.6071H13.6442C13.7528 50.605 13.8611 50.6193 13.9653 50.6496C14.0486 50.6733 14.1257 50.7143 14.1916 50.7698C14.2512 50.8208 14.2973 50.8854 14.3259 50.958C14.3561 51.0363 14.3711 51.1197 14.37 51.2035C14.3709 51.2877 14.3547 51.3712 14.3224 51.4491C14.2916 51.5231 14.2439 51.589 14.1831 51.6418C14.1169 51.6986 14.0396 51.7414 13.956 51.7675C13.8551 51.7994 13.7497 51.8146 13.6438 51.8126L13.3317 51.8115ZM13.3317 51.6048H13.6438C13.7113 51.606 13.7786 51.5961 13.8428 51.5755C13.8966 51.5581 13.9461 51.5299 13.9884 51.4927C14.0273 51.4577 14.0577 51.4145 14.0773 51.3662C14.0977 51.3144 14.1079 51.2591 14.1074 51.2035C14.1103 51.1502 14.1016 51.0969 14.0817 51.0473C14.0618 50.9976 14.0313 50.9528 13.9923 50.9159C13.9142 50.8473 13.7995 50.8126 13.6438 50.8126H13.3317V51.6048Z" fill="white"/>
<path fill-rule="evenodd" clip-rule="evenodd" d="M16.1433 52.5312H15.8796V51.6557H14.8292V52.5312H14.5651V50.6072H14.8292V51.4653H15.8796V50.6072H16.1433V52.5312Z" fill="white"/>
<path fill-rule="evenodd" clip-rule="evenodd" d="M18.3042 51.5697C18.306 51.705 18.2826 51.8395 18.2351 51.9664C18.1925 52.0822 18.126 52.188 18.04 52.2771C17.9545 52.3651 17.851 52.4341 17.7365 52.4795C17.4844 52.5756 17.2051 52.5756 16.953 52.4795C16.8386 52.434 16.7352 52.365 16.6498 52.2771C16.5639 52.1879 16.4975 52.0821 16.4547 51.9664C16.3621 51.71 16.3621 51.4299 16.4547 51.1734C16.4977 51.0575 16.564 50.9514 16.6498 50.8616C16.7352 50.7734 16.8385 50.7042 16.953 50.6584C17.205 50.5618 17.4845 50.5618 17.7365 50.6584C17.8511 50.704 17.9546 50.7733 18.04 50.8616C18.1258 50.9514 18.1921 51.0575 18.2351 51.1734C18.2825 51.3002 18.3059 51.4346 18.3042 51.5697ZM18.0338 51.5697C18.0355 51.4618 18.019 51.3543 17.985 51.2517C17.9558 51.1637 17.9085 51.0826 17.8461 51.0135C17.786 50.948 17.7117 50.8969 17.6288 50.8639C17.4456 50.794 17.2427 50.794 17.0595 50.8639C16.9764 50.8971 16.9019 50.9482 16.8414 51.0135C16.7787 51.0825 16.7312 51.1636 16.7017 51.2517C16.6367 51.4587 16.6367 51.6804 16.7017 51.8874C16.7313 51.9753 16.7788 52.0563 16.8414 52.1253C16.902 52.1903 16.9765 52.2413 17.0595 52.2744C17.2429 52.3428 17.4453 52.3428 17.6288 52.2744C17.7116 52.2415 17.7859 52.1905 17.8461 52.1253C17.9084 52.0562 17.9557 51.9753 17.985 51.8874C18.0191 51.7849 18.0356 51.6776 18.0338 51.5697Z" fill="white"/>
<path fill-rule="evenodd" clip-rule="evenodd" d="M19.7447 50.6072V50.8192H18.8083V51.4584H19.5664V51.6623H18.8083V52.3192H19.7459L19.7447 52.5312H18.5445V50.6072H19.7447Z" fill="white"/>
<path fill-rule="evenodd" clip-rule="evenodd" d="M22.3367 51.5697C22.3383 51.705 22.3149 51.8395 22.2676 51.9664C22.2249 52.0821 22.1584 52.1879 22.0726 52.2771C21.9871 52.3651 21.8836 52.4341 21.769 52.4795C21.5169 52.5756 21.2376 52.5756 20.9855 52.4795C20.871 52.4341 20.7677 52.3651 20.6823 52.2771C20.5966 52.1878 20.5302 52.082 20.4872 51.9664C20.3946 51.71 20.3946 51.4299 20.4872 51.1734C20.5304 51.0576 20.5967 50.9515 20.6823 50.8616C20.7677 50.7734 20.871 50.7041 20.9855 50.6584C21.2375 50.5618 21.517 50.5618 21.769 50.6584C21.8836 50.7041 21.9871 50.7734 22.0726 50.8616C22.1583 50.9514 22.2247 51.0575 22.2676 51.1734C22.3149 51.3003 22.3383 51.4346 22.3367 51.5697ZM22.0663 51.5697C22.0678 51.4618 22.0514 51.3543 22.0175 51.2517C21.9883 51.1637 21.941 51.0826 21.8786 51.0135C21.8185 50.9481 21.7442 50.897 21.6613 50.8639C21.4781 50.794 21.2752 50.794 21.092 50.8639C21.0089 50.897 20.9344 50.9481 20.8739 51.0135C20.8111 51.0824 20.7636 51.1635 20.7346 51.2517C20.6691 51.4587 20.6691 51.6804 20.7346 51.8874C20.7638 51.9754 20.8112 52.0564 20.8739 52.1253C20.9345 52.1904 21.009 52.2414 21.092 52.2744C21.2755 52.3428 21.4779 52.3428 21.6613 52.2744C21.7441 52.2413 21.8184 52.1904 21.8786 52.1253C21.941 52.0562 21.9882 51.9753 22.0175 51.8874C22.052 51.785 22.0689 51.6776 22.0675 51.5697H22.0663Z" fill="white"/>
<path fill-rule="evenodd" clip-rule="evenodd" d="M23.8369 50.8126H22.8408V51.4355H23.2197C23.3235 51.4335 23.4271 51.4465 23.5271 51.4741C23.6048 51.4949 23.6772 51.5316 23.7398 51.5816C23.7941 51.6255 23.8365 51.6819 23.8635 51.7459C23.8902 51.812 23.9035 51.8828 23.9025 51.954C23.9044 52.0362 23.8894 52.1179 23.8584 52.1942C23.829 52.2644 23.7834 52.3268 23.7253 52.3765C23.6621 52.429 23.5889 52.4683 23.51 52.4922C23.4155 52.5196 23.3173 52.5326 23.2189 52.5307H22.579V50.6067H23.8373L23.8369 50.8126ZM22.8408 51.6422V52.3245H23.2185C23.2844 52.3258 23.3502 52.3173 23.4136 52.2991C23.4622 52.2851 23.5072 52.2609 23.5455 52.2281C23.5795 52.1988 23.6053 52.1614 23.6204 52.1194C23.6366 52.0744 23.6446 52.0269 23.6442 51.9791C23.6449 51.9304 23.6368 51.882 23.6204 51.8361C23.6049 51.7951 23.5791 51.7588 23.5455 51.7304C23.5073 51.699 23.4625 51.6765 23.4144 51.6645C23.3513 51.6484 23.2863 51.6409 23.2212 51.6422H22.8408Z" fill="white"/>
<path fill-rule="evenodd" clip-rule="evenodd" d="M24.1276 52.5312V50.6072H24.3914V52.3273H25.2069V50.6072H25.4706V52.3273H26.29V50.6072H26.5549V52.3273H26.8526V52.9221C26.853 52.9327 26.851 52.9432 26.8469 52.953C26.8428 52.9628 26.8366 52.9716 26.8288 52.9788C26.8122 52.9932 26.7905 53.0008 26.7684 53H26.6123V52.5312H24.1276Z" fill="white"/>
<path fill-rule="evenodd" clip-rule="evenodd" d="M28.2385 50.6072V50.8192H27.3021V51.4584H28.061V51.6623H27.3021V52.3192H28.2401L28.2385 52.5312H27.0383V50.6072H28.2385Z" fill="white"/>
<path fill-rule="evenodd" clip-rule="evenodd" d="M29.7977 52.1341C29.8051 52.134 29.8124 52.1354 29.8192 52.1385C29.8259 52.1415 29.8319 52.1459 29.8367 52.1515L29.9421 52.2629C29.8621 52.3541 29.7628 52.4268 29.6514 52.4761C29.5212 52.5307 29.3807 52.557 29.2393 52.5532C29.1088 52.5547 28.9793 52.5303 28.8585 52.4815C28.7476 52.4358 28.6479 52.367 28.5663 52.2799C28.4834 52.1897 28.4198 52.0841 28.379 51.9692C28.3333 51.841 28.3107 51.706 28.3123 51.5702C28.3107 51.4343 28.3341 51.2992 28.3813 51.1715C28.4246 51.0559 28.491 50.9499 28.5764 50.8601C28.6614 50.7726 28.764 50.7038 28.8776 50.6581C29.0005 50.6089 29.1321 50.5846 29.2647 50.5864C29.3903 50.584 29.5151 50.6063 29.6319 50.6519C29.7353 50.6943 29.8301 50.7549 29.9116 50.8308L29.825 50.9499C29.8196 50.9588 29.8123 50.9665 29.8035 50.9722C29.7932 50.9785 29.7813 50.9814 29.7692 50.9807C29.7471 50.9785 29.7262 50.9694 29.7095 50.9549C29.68 50.9333 29.6491 50.9136 29.617 50.8959C29.5716 50.8718 29.5237 50.8524 29.4742 50.8381C29.3133 50.796 29.143 50.8047 28.9873 50.8631C28.9053 50.8971 28.8318 50.9482 28.7719 51.0131C28.7093 51.0825 28.6616 51.1639 28.6318 51.2521C28.5967 51.3545 28.5796 51.4621 28.5811 51.5702C28.5793 51.6794 28.597 51.7881 28.6334 51.8913C28.6647 51.9793 28.7134 52.0603 28.7766 52.1295C28.8358 52.1937 28.9085 52.2442 28.9896 52.2776C29.0739 52.3122 29.1644 52.3297 29.2557 52.3288C29.3079 52.3291 29.3601 52.3258 29.4118 52.3188C29.4559 52.313 29.4992 52.3024 29.5409 52.2872C29.5797 52.2735 29.6166 52.2552 29.651 52.2328C29.6868 52.2099 29.7208 52.1841 29.7524 52.1557C29.7643 52.1433 29.7804 52.1356 29.7977 52.1341Z" fill="white"/>
<path fill-rule="evenodd" clip-rule="evenodd" d="M31.4271 50.6072V50.8261H30.7962V52.5312H30.534V50.8261H29.9019V50.6072H31.4271Z" fill="white"/>
<path fill-rule="evenodd" clip-rule="evenodd" d="M31.5797 52.5312V50.6071H32.2008C32.3051 50.6053 32.4091 50.6171 32.5102 50.6422C32.5871 50.6612 32.6595 50.6948 32.7233 50.7413C32.7776 50.7822 32.82 50.8366 32.8462 50.899C32.8731 50.9659 32.8864 51.0374 32.8852 51.1094C32.8854 51.156 32.8777 51.2022 32.8626 51.2463C32.8477 51.2906 32.825 51.332 32.7955 51.3685C32.7636 51.408 32.7254 51.442 32.6823 51.4691C32.6323 51.5006 32.578 51.525 32.5212 51.5416C32.6632 51.5693 32.7705 51.62 32.8431 51.6935C32.88 51.7322 32.9086 51.7778 32.9273 51.8277C32.946 51.8776 32.9544 51.9306 32.9519 51.9838C32.9529 52.0604 32.9373 52.1364 32.9063 52.2066C32.8758 52.2735 32.8303 52.3327 32.7732 52.3797C32.7096 52.4307 32.6364 52.4687 32.5578 52.4915C32.4634 52.5189 32.3652 52.5319 32.2668 52.53L31.5797 52.5312ZM31.8419 51.4691H32.1899C32.2558 51.4705 32.3215 51.4625 32.385 51.4452C32.4344 51.4318 32.4807 51.4089 32.5212 51.3777C32.5555 51.35 32.5823 51.3142 32.5992 51.2737C32.6169 51.2313 32.6257 51.1857 32.6249 51.1399C32.6249 51.0266 32.5906 50.9433 32.5219 50.8912C32.4533 50.8392 32.3456 50.8141 32.2012 50.8141H31.8422L31.8419 51.4691ZM31.8419 51.6545V52.3245H32.2632C32.3292 52.3258 32.395 52.3172 32.4583 52.2991C32.5077 52.2849 32.5534 52.2603 32.5922 52.227C32.6269 52.1971 32.6537 52.1593 32.6702 52.1168C32.6867 52.0719 32.6949 52.0245 32.6944 51.9768C32.6963 51.9319 32.6875 51.8872 32.6688 51.8462C32.6501 51.8053 32.622 51.7692 32.5867 51.7409C32.5152 51.6836 32.4079 51.6548 32.2648 51.6545H31.8419Z" fill="white"/>
<path fill-rule="evenodd" clip-rule="evenodd" d="M35.0004 51.5697C35.002 51.705 34.9786 51.8395 34.9313 51.9664C34.8885 52.0821 34.8221 52.1879 34.7362 52.2771C34.651 52.3652 34.5476 52.4342 34.4331 52.4795C34.181 52.5756 33.9017 52.5756 33.6496 52.4795C33.5351 52.4341 33.4318 52.3651 33.3464 52.2771C33.2607 52.1878 33.1943 52.082 33.1513 51.9664C33.0593 51.7099 33.0593 51.4299 33.1513 51.1734C33.1945 51.0576 33.2608 50.9515 33.3464 50.8616C33.4317 50.7734 33.5351 50.7041 33.6496 50.6584C33.9016 50.5618 34.1811 50.5618 34.4331 50.6584C34.5476 50.704 34.651 50.7733 34.7362 50.8616C34.822 50.9514 34.8883 51.0575 34.9313 51.1734C34.9786 51.3003 35.002 51.4346 35.0004 51.5697ZM34.73 51.5697C34.7316 51.4618 34.715 51.3543 34.6808 51.2517C34.6519 51.1636 34.6047 51.0825 34.5423 51.0135C34.4821 50.948 34.4077 50.8969 34.3246 50.8639C34.1414 50.794 33.9385 50.794 33.7553 50.8639C33.6724 50.8973 33.5979 50.9483 33.5372 51.0135C33.4747 51.0826 33.4273 51.1637 33.3979 51.2517C33.3329 51.4587 33.3329 51.6804 33.3979 51.8874C33.4274 51.9753 33.4748 52.0562 33.5372 52.1253C33.598 52.1901 33.6725 52.2411 33.7553 52.2744C33.9388 52.3428 34.1412 52.3428 34.3246 52.2744C34.4076 52.2415 34.482 52.1905 34.5423 52.1253C34.6047 52.0563 34.6518 51.9753 34.6808 51.8874C34.7151 51.785 34.7317 51.6776 34.73 51.5697Z" fill="white"/>
<path fill-rule="evenodd" clip-rule="evenodd" d="M1.67194 48.7729V48.205H1.61302C1.55372 48.205 1.48075 48.2027 1.39218 48.1969C1.29578 48.1903 1.20018 48.1751 1.10657 48.1514C0.998976 48.1245 0.894401 48.0869 0.794424 48.0392C0.684612 47.9865 0.583356 47.9179 0.493985 47.8357C0.444672 47.7895 0.39938 47.7394 0.358591 47.6857C0.308054 47.6192 0.265499 47.5472 0.231782 47.471C0.191005 47.3788 0.15951 47.2829 0.137749 47.1846C0.110444 47.0624 0.0973533 46.9376 0.0987313 46.8126C0.0987313 46.5427 0.13775 46.3245 0.219298 46.151C0.285245 45.9981 0.382483 45.8603 0.504908 45.7463C0.594928 45.6636 0.698497 45.5966 0.811202 45.5481C0.913664 45.5042 1.02015 45.4701 1.1292 45.4463C1.22228 45.4267 1.3167 45.4138 1.41169 45.4078C1.49831 45.402 1.56776 45.3997 1.6181 45.3997H1.67116V45.0674H2.34851V45.3997H2.40119C2.4523 45.3997 2.52097 45.402 2.6072 45.4078C2.70322 45.4138 2.79867 45.4267 2.89282 45.4463C3.00215 45.4696 3.10882 45.5037 3.2112 45.5481C3.32263 45.5972 3.42507 45.6641 3.51437 45.7463C3.63692 45.8603 3.73429 45.9981 3.80038 46.151C3.88075 46.3245 3.92094 46.5443 3.92094 46.8126C3.92234 46.9374 3.91057 47.0621 3.88583 47.1846C3.86556 47.2833 3.83388 47.3794 3.7914 47.471C3.72752 47.6083 3.63743 47.7321 3.52608 47.8357C3.43677 47.9178 3.33566 47.9864 3.22603 48.0392C3.12608 48.0869 3.0215 48.1245 2.91389 48.1514C2.82014 48.1751 2.72441 48.1903 2.62788 48.1969C2.5397 48.2027 2.46596 48.205 2.40704 48.205H2.34851V48.7729H1.67194ZM1.62473 45.8268C1.5306 45.8281 1.43685 45.839 1.34497 45.8592C1.23759 45.882 1.13872 45.9338 1.05936 46.0088C1.00463 46.0586 0.960575 46.1188 0.929816 46.1857C0.897888 46.2545 0.873303 46.3263 0.856462 46.4001C0.83854 46.4747 0.82757 46.5509 0.823688 46.6275C0.819786 46.7046 0.817834 46.7748 0.817834 46.8395C0.817834 46.8894 0.819786 46.9465 0.823688 47.0107C0.827887 47.0775 0.837808 47.1438 0.853342 47.2089C0.869431 47.2781 0.893112 47.3455 0.923965 47.4097C0.955865 47.4767 0.99975 47.5374 1.0535 47.589C1.13651 47.6724 1.24342 47.7286 1.3598 47.7501C1.44729 47.7656 1.53586 47.7744 1.62473 47.7763H1.70276V45.8268H1.62473ZM2.32042 47.7763H2.39846C2.48732 47.7744 2.5759 47.7656 2.66339 47.7501C2.77977 47.7286 2.88667 47.6724 2.96968 47.589C3.02344 47.5374 3.06732 47.4767 3.09922 47.4097C3.13004 47.3454 3.15384 47.2781 3.17024 47.2089C3.18539 47.1437 3.1953 47.0774 3.19989 47.0107C3.2034 46.9463 3.20535 46.8893 3.20535 46.8395C3.20535 46.7748 3.20535 46.7046 3.19989 46.6275C3.19581 46.5509 3.18485 46.4748 3.16711 46.4001C3.14996 46.3263 3.12525 46.2545 3.09337 46.1857C3.06261 46.1188 3.01856 46.0586 2.96383 46.0088C2.88441 45.9339 2.78556 45.8821 2.67822 45.8592C2.58633 45.839 2.49258 45.8282 2.39846 45.8268H2.32042V47.7763Z" fill="white"/>
<path fill-rule="evenodd" clip-rule="evenodd" d="M7.68772 46.9252C7.69127 47.1908 7.6535 47.4554 7.57574 47.7097C7.5089 47.9295 7.39782 48.1336 7.24915 48.3099C7.10568 48.4755 6.9265 48.6073 6.72475 48.6955C6.50073 48.79 6.25896 48.8365 6.0154 48.8319C5.75464 48.8378 5.49563 48.7885 5.25572 48.6874C5.04694 48.5964 4.86166 48.46 4.71376 48.2884C4.5639 48.1114 4.45307 47.9056 4.38835 47.6839C4.31563 47.4359 4.27988 47.1788 4.28222 46.9206C4.27748 46.6444 4.31928 46.3694 4.40591 46.1068C4.47929 45.8863 4.59761 45.6829 4.75356 45.5093C4.90169 45.3478 5.08482 45.2214 5.28928 45.1396C5.51045 45.0534 5.74649 45.0108 5.98419 45.0139C6.24245 45.0081 6.49885 45.0583 6.73529 45.1611C6.94198 45.2538 7.12434 45.3922 7.26828 45.5655C7.41342 45.7444 7.52052 45.9504 7.58315 46.1712C7.65414 46.4163 7.68935 46.6702 7.68772 46.9252ZM6.85 46.9638C6.85206 46.7743 6.83902 46.5849 6.81098 46.3975C6.7893 46.2467 6.74208 46.1006 6.6713 45.9653C6.61073 45.8512 6.51858 45.7564 6.40558 45.692C6.2751 45.6245 6.12901 45.592 5.98185 45.5975C5.66424 45.5975 5.43885 45.7093 5.30567 45.9329C5.17248 46.1565 5.10602 46.4753 5.10628 46.8894C5.10628 47.3296 5.1747 47.6691 5.31152 47.9079C5.44834 48.1466 5.67725 48.2659 5.99824 48.2656C6.27891 48.2656 6.49142 48.1638 6.63579 47.9603C6.78016 47.7568 6.85156 47.4242 6.85 46.9626V46.9638Z" fill="white"/>
<path fill-rule="evenodd" clip-rule="evenodd" d="M10.2477 48.773V47.0587H8.95428V48.773H8.10095V45.0664H8.95428V46.5556H10.2477V45.0664H11.0991V48.773H10.2477Z" fill="white"/>
<path fill-rule="evenodd" clip-rule="evenodd" d="M14.2412 45.0664L14.9899 48.0525H15.5393V49.4261H14.8097V48.556H12.2907V49.4261H11.561V48.0525H12.1315L13.0234 45.0664H14.2412ZM13.5974 45.5591L12.8342 48.0525H14.2127L13.5974 45.5591Z" fill="white"/>
<path fill-rule="evenodd" clip-rule="evenodd" d="M19.749 48.773V47.0587H18.4661V48.773H17.6127V45.0664H18.4661V46.5556H19.749V45.0664H20.6078V48.773H19.749Z" fill="white"/>
<path fill-rule="evenodd" clip-rule="evenodd" d="M23.8057 48.7731L23.4546 47.7981H22.0534L21.7023 48.7731H20.9594L22.3796 45.061H23.2115L24.5939 48.7731H23.8057ZM23.2926 47.2842C23.2725 47.2396 23.2548 47.1939 23.2396 47.1474C23.2123 47.0703 23.1814 46.9758 23.1459 46.8637C23.1104 46.7515 23.0718 46.6324 23.0289 46.5048C22.986 46.3772 22.9485 46.2565 22.9118 46.1401C22.8751 46.0236 22.8463 45.9246 22.8213 45.8405C22.7963 45.7565 22.7823 45.7017 22.7772 45.6771H22.7714C22.7503 45.7453 22.714 45.8567 22.6617 46.0117C22.6094 46.1667 22.5552 46.3297 22.499 46.499C22.4428 46.6682 22.3882 46.8286 22.3363 46.9789C22.2844 47.1293 22.2477 47.2303 22.227 47.2842H23.2926Z" fill="white"/>
<path fill-rule="evenodd" clip-rule="evenodd" d="M26.0071 46.643C26.0591 46.7643 26.1024 46.8715 26.137 46.9645C26.1721 47.0574 26.2096 47.1715 26.2486 47.3072C26.2801 47.2 26.3061 47.1089 26.3266 47.0339C26.3481 46.9587 26.3696 46.8939 26.3914 46.8384L26.4503 46.6842C26.4679 46.6376 26.4866 46.5902 26.5065 46.5397L27.0528 45.0667H27.7652L26.6583 47.8685C26.5878 48.0502 26.522 48.2044 26.4609 48.3311C26.4084 48.4469 26.331 48.55 26.2342 48.6333C26.1774 48.6813 26.1139 48.721 26.0457 48.7513C25.9794 48.7822 25.9105 48.8072 25.8397 48.8261C25.773 48.8442 25.7121 48.8585 25.6571 48.8693C25.6021 48.8801 25.3793 48.8924 25.3481 48.8959H24.9255L24.7776 48.3134C24.7776 48.3134 25.0648 48.3519 25.1604 48.3438C25.2049 48.3396 25.3457 48.3438 25.4398 48.3134C25.5338 48.2829 25.5826 48.2841 25.709 48.2232C25.7699 48.1931 25.8826 47.9919 25.8826 47.9919L24.5911 45.067H25.345L26.0071 46.643Z" fill="white"/>
<path fill-rule="evenodd" clip-rule="evenodd" d="M31.1872 45.441L30.9886 45.4842C30.9356 45.493 30.8834 45.5059 30.8325 45.5227C30.8006 45.5342 30.7711 45.5513 30.7455 45.5732C30.7107 45.6036 30.683 45.6411 30.6643 45.6831C30.6447 45.7255 30.6283 45.7693 30.6152 45.8142L30.5028 46.1997C30.4784 46.2926 30.4451 46.3829 30.4033 46.4695C30.3648 46.5405 30.3117 46.6026 30.2472 46.6519C30.1568 46.7212 30.0534 46.7722 29.9429 46.8018V46.8126C29.9884 46.827 30.0329 46.844 30.0763 46.8635C30.1242 46.8855 30.169 46.9134 30.2098 46.9464C30.2829 46.9996 30.3443 47.067 30.39 47.1446C30.4292 47.2161 30.4604 47.2916 30.4833 47.3697L30.6784 47.9641C30.7174 48.1002 30.767 48.1873 30.8212 48.2263C30.8565 48.2537 30.896 48.2755 30.9382 48.2907C30.9856 48.3107 31.0345 48.3269 31.0846 48.3388L31.2707 48.3874L31.1404 48.8211L30.9039 48.7999C30.7762 48.79 30.6496 48.7701 30.525 48.7405C30.4126 48.7161 30.3079 48.6648 30.2203 48.591C30.1617 48.5419 30.1149 48.4805 30.0834 48.4113C30.0492 48.3289 30.0222 48.2438 30.0026 48.1569L29.8465 47.5401C29.8294 47.4834 29.8075 47.4198 29.7782 47.35C29.7498 47.2822 29.7049 47.2224 29.6475 47.1758C29.5838 47.1272 29.5088 47.095 29.4294 47.0821C29.3617 47.0707 29.2932 47.0645 29.2246 47.0636H28.8137V48.7722H28.0985V45.0663H28.8137V46.5605H29.2862C29.3601 46.5604 29.4338 46.5542 29.5067 46.542C29.5861 46.5288 29.6604 46.4945 29.7217 46.4429C29.7758 46.3976 29.8163 46.3383 29.8387 46.2718C29.8594 46.2074 29.8777 46.148 29.8941 46.0948L30.0112 45.6446C30.0276 45.584 30.0502 45.5139 30.0822 45.4333C30.1155 45.3502 30.1702 45.2773 30.241 45.2217C30.2968 45.1728 30.3625 45.1363 30.4337 45.1145C30.5376 45.0866 30.6435 45.067 30.7506 45.0559L31.0491 45.0173L31.1872 45.441Z" fill="white"/>
<path fill-rule="evenodd" clip-rule="evenodd" d="M33.8701 48.773V46.6462C33.8701 46.5999 33.8701 46.546 33.8728 46.4831C33.8755 46.4203 33.8783 46.3548 33.8825 46.285C33.8868 46.2152 33.8911 46.1466 33.8954 46.0787C33.8997 46.0109 33.904 45.9504 33.9083 45.8968C33.8615 46.0148 33.8117 46.1263 33.7589 46.2314C33.706 46.3365 33.65 46.4393 33.5907 46.5398L32.2773 48.7734H31.5223V45.0664H32.252V47.2141C32.252 47.3181 32.2465 47.4384 32.2364 47.576C32.2262 47.7137 32.2165 47.8285 32.2075 47.923C32.2625 47.7869 32.3164 47.6686 32.369 47.5664C32.4217 47.4642 32.4802 47.359 32.5442 47.248L33.8131 45.0679H34.6001V48.7746L33.8701 48.773Z" fill="white"/>
</g>
<defs>
<clipPath id="clip0_2040_517">
<rect width="35" height="53" fill="white"/>
</clipPath>
</defs>
</svg>
